<svg xmlns="http://www.w3.org/2000/svg" xmlns:xlink="http://www.w3.org/1999/xlink" viewBox="0 0 1062.88 500"><defs><style>.cls-1{fill:none;}.cls-2{clip-path:url(#clip-path);}.cls-3{fill:url(#linear-gradient);}.cls-4{fill:url(#linear-gradient-2);}.cls-5{fill:url(#linear-gradient-3);}.cls-6{fill:url(#linear-gradient-4);}</style><clipPath id="clip-path"><rect class="cls-1" width="1062.88" height="500"/></clipPath><linearGradient id="linear-gradient" x1="83.57" y1="183.96" x2="78.28" y2="51.54" gradientTransform="matrix(1, 0, 0, -1, 0, 538)" gradientUnits="userSpaceOnUse"><stop offset="0" stop-color="#0f709a"/><stop offset="0.26" stop-color="#0c517d"/><stop offset="0.55" stop-color="#093663"/><stop offset="0.8" stop-color="#082553"/><stop offset="0.99" stop-color="#071f4d"/></linearGradient><linearGradient id="linear-gradient-2" x1="64.33" y1="162.57" x2="58.98" y2="75.36" xlink:href="#linear-gradient"/><linearGradient id="linear-gradient-3" x1="916.64" y1="172.63" x2="910.21" y2="11.82" gradientTransform="matrix(1, -0.08, -0.08, -1, 27.53, 569.32)" xlink:href="#linear-gradient"/><linearGradient id="linear-gradient-4" x1="898.29" y1="129.77" x2="892.93" y2="42.41" gradientTransform="matrix(1, -0.08, -0.08, -1, 27.53, 569.32)" xlink:href="#linear-gradient"/></defs><g id="Layer_2" data-name="Layer 2"><g id="Layer_1-2" data-name="Layer 1"><g id="Layer_2-2" data-name="Layer 2"><g id="layer_1-2-2" data-name="layer 1-2"><g class="cls-2"><path class="cls-3" d="M180.29,430.5a9.87,9.87,0,0,0-2.95-2.84c-1.13-.72-2.52-1-3.59-1.8-.79-.58-1.27-1.25-2.33-1.37a6.18,6.18,0,0,0-4.08,1.28c-1.62,1.17-3.19,2.74-5.22,2.83-1.06,0-2.18-.34-3.19,0a5.76,5.76,0,0,0-2.22,1.6,12.55,12.55,0,0,1-5.78,3,2.69,2.69,0,0,1-1.77-.06c-1.2-.62-.79-2.33-1.31-3.52-.69-1.61-3-2.15-3.71-3.77a12.77,12.77,0,0,1-.33-2.45c-.54-2.87-5.49-3.69-7-1.17a15.53,15.53,0,0,1-1,1.8c-1.25,1.59-3.79,1.34-5.88,1.17s-4.85.44-5.08,2.41a9.33,9.33,0,0,0,.44,2.39c.46,2.92-3.81,5.33-6.37,3.57-1.59-1.11-2.13-3.13-3.27-4.62s-4.1-2.14-4.87-.42c.26-1.33-1.24-2.48-2.67-2.51a7.88,7.88,0,0,0-4,1.42,13.22,13.22,0,0,0-4.76,4c-.83,1.34-1.13,2.95-2.13,4.21s-3.09,2-4.25.88c1.8-3.39-1-7.26-3.58-10.15a5.91,5.91,0,0,0-2-1.62c-2.81-1.15-5.43,2.25-5.62,5.13s.56,6.11-1.25,8.44c-2.93-2.61-8.71-.71-9.27,3-.17,1.21.07,2.53-.61,3.56s-1.74,1.35-2.21,2.29-.13,2-.22,3a4.05,4.05,0,0,1-7.91.5,4,4,0,0,0-.67-2,2.86,2.86,0,0,0-1.18-.59l-4.35-1.4c-2.65-.86-6.26-1.41-7.67.87-1.3,2.09.32,5.38-1.7,6.89a3.79,3.79,0,0,1-1.56.62,8.66,8.66,0,0,1-9.82-5.94c-.29-1.23-.29-2.59-1.07-3.61-2-2.63-6.52-.78-9.71-2-4.43-1.65-4.14-8-7.64-11a7.07,7.07,0,0,0-9.54.93,6.09,6.09,0,0,0-.64.87,9.93,9.93,0,0,1-8.2-7.09c-.5-2-.3-4.13-1.15-6-1.63-3.6-7.38-4.73-10.4-2.06-2.13,1.89-2.67,4.86-3.07,7.6a43.38,43.38,0,0,1-1.52,8.52,17.68,17.68,0,0,0-.82,3.2c-1.07,6.67-5,12.44-6.47,19a65.27,65.27,0,0,0,4.73,42.33c4,8.32,9.82,16,17.68,21.34,11.69,7.92,26.62,10.15,41,10.22,17.91.09,35.68-2.81,53.2-6.32S125,517.32,141,509.59s30.42-19.34,38.32-34.59a83.1,83.1,0,0,0,7.14-21C188.47,444.85,185.53,438.39,180.29,430.5Z"/><path class="cls-4" d="M34.25,471c.1-1.76.34-4.44,2.17-4.1s1.07,3.06,2.25,4.38a4.05,4.05,0,0,0,2.38,1,13.56,13.56,0,0,0,5.42.29A4.18,4.18,0,0,0,50,469.11c0-1.47-1.07-2.76-1.28-4.21a4.08,4.08,0,0,1,2.13-4c.58-.34,1.27-.39,1.86-.7a2.55,2.55,0,0,0,.94-1.12,13.1,13.1,0,0,0,1.69-4.82,1.08,1.08,0,0,1,.41-.87,1.1,1.1,0,0,1,.76,0,10.94,10.94,0,0,1,3.4.94,3.44,3.44,0,0,1,2,2.62c.11,1.54-1.26,2.94-1.06,4.48a4.23,4.23,0,0,1,.16,1.46,3.51,3.51,0,0,1-1,1.28c-.36.4-.61,1-.24,1.43.15.17.7.28.92.43a3.74,3.74,0,0,1,.82.71,3.9,3.9,0,0,1,.91,2,12.34,12.34,0,0,1-.28,2,3.8,3.8,0,0,0,1.06,2.35c1.24,1.29,3.58,1.1,5.08.07a10.89,10.89,0,0,0,3.19-4.25,11.76,11.76,0,0,1,7.91,3.4,11.43,11.43,0,0,0,2.78,2.54c2.75,1.38,6.11-.82,7.61-3.39,1.23-2.08,1.91-4.39,3.14-6.48.23-.4.47-.8.68-1.22a8.06,8.06,0,0,0,.59-1.84,12.88,12.88,0,0,0,.14-6.83c-.42-1.29-1.06-2.52-1.37-3.84a3.84,3.84,0,0,1,.93-3.78c1.3-1.14,3.78-1.3,4.1-3a4.1,4.1,0,0,1,.14-.92c.34-.85,1.3-.59,2-.93a6.07,6.07,0,0,0,1.79-1.85,13.29,13.29,0,0,1,2.52-3.09c1.06-.8,2.9-1,3.74.06s.16,2.82.77,4.11c.9,1.88,4.16,1.94,4.94,3.86.4,1,0,2.13,0,3.2.13,3,5,4.32,6.86,1.93.65-.85.92-2,1.8-2.61,3.13-2.25,7.44,4.58,10.63,2.4-.43-4.06,4.38-7.75,8.5-6.56l.16,2.86a19.75,19.75,0,0,1,10-2.24c3.47.29,6.93,2.12,8.36,5.11,1.91,4-.19,8.61-1.64,12.8-4.09,11.88-2.76,25-7.44,36.72a40.52,40.52,0,0,1-14.42,18c-7.5,5.24-16.61,8-25.63,10.25a299.33,299.33,0,0,1-70.89,8.88C24,536.58,7.3,535.21-6.9,528c-15.82-8.16-26.95-23-32.63-39-2.27-6.41-3.76-13.16-3.31-19.93.54-8.14,3.84-15.85,6.05-23.73,2.79-9.95,4.12-20.87,11.26-28.67a13.62,13.62,0,0,1,5.88-4c1.38-.42,3.19-.63,4.25.53a5.44,5.44,0,0,1,.85,3.93,23,23,0,0,1-1.16,5.37,32.87,32.87,0,0,0-1.9,8.51c-.21,5,1.86,10.33,6.43,12.82,2.3,1.26,5.05,1.71,7.2,3.17a14.86,14.86,0,0,1,3.27,3.45,3.05,3.05,0,0,0,1.22.8l3.71,1.76a2.92,2.92,0,0,0,2.39.37,3.33,3.33,0,0,0,1.06-1.12,5.71,5.71,0,0,1,6-1.75c1.85.61,2.49,1.94,3.19,3.48a3.18,3.18,0,0,1,.42.87,10,10,0,0,1-.24,2.44A4,4,0,0,0,19,460.87c1.16.69,2.59.81,3.81,1.38a5.23,5.23,0,0,1,2.95,3.89,3.31,3.31,0,0,1-.37,2.18c-1,1.59-3.63,2.25-3.66,4.09A3.57,3.57,0,0,0,23,474.64l1.68,1.8a1.83,1.83,0,0,0,.7.56,2.13,2.13,0,0,0,.71.08,9.46,9.46,0,0,0,3.05-.19,11.55,11.55,0,0,0,2.29-1.25A6.26,6.26,0,0,0,34.25,471Z"/><path class="cls-5" d="M1077.08,391.48c-3.63-.86-8.5,1.68-10.69-1.19-.76-1-.8-2.3-1.38-3.39-2-3.56-7.94-2.56-11.17-5.17a23.18,23.18,0,0,0-4.14,7.93,11.15,11.15,0,0,0-5-.32c-1.64.42-3.12,1.89-2.84,3.47a8,8,0,0,0,1.25,2.37,5.91,5.91,0,0,1-2.53,7.89c-2.76-.84-5.72-1.68-8.5-1s-5.23,3.53-4.19,6.08c.68,1.67,2.51,2.62,3.71,4s1.35,4-.47,4.47c-4-1.51-8.73,3.37-6.73,7,1.29,2.33,4.41,3.6,5.05,6.16.73,3-3.51,5.72-6.2,4-2.38-1.49-2.66-5-5.15-6.31-2.13-1.14-5,0-6.38,1.87a13.76,13.76,0,0,0-2.12,6.54c-.15,1-.3,2.07-.46,3.1-2.71,3.55-9.66,2.65-11.26-1.46-.84-2.16-.31-4.58-.75-6.84s-2.78-4.61-5-3.71c.32,2.94-4.12,4.58-6.91,3.21s-4.16-4.33-5.48-7A14.73,14.73,0,0,0,976,418c-.72-.57-1.44-1.1-2.13-1.69-1.4-1.2-3.28-1.36-4.83-2.33-.83-.51-1.37-1.15-2.44-1.19a6.12,6.12,0,0,0-4,1.57c-1.52,1.29-2.94,3-5,3.2-1.06.13-2.21-.18-3.18.19a5.89,5.89,0,0,0-2.13,1.76,12.54,12.54,0,0,1-5.52,3.41A2.57,2.57,0,0,1,945,423c-1.24-.53-1-2.26-1.6-3.41-.82-1.56-3.18-1.92-4-3.49a12.58,12.58,0,0,1-.52-2.42c-.78-2.82-5.78-3.27-7.11-.65q-.36.95-.81,1.86c-1.12,1.68-3.67,1.61-5.77,1.6s-4.81.79-4.87,2.77a9.32,9.32,0,0,0,.64,2.35c.7,2.88-3.36,5.59-6,4-1.68-1-2.33-3-3.63-4.37s-4.26-1.83-4.89-.06c.13-1.34-1.45-2.38-2.88-2.31a7.69,7.69,0,0,0-3.83,1.71,13,13,0,0,0-4.43,4.3c-.72,1.4-.87,3-1.72,4.36s-2.93,2.22-4.15,1.18c1.51-3.51-1.57-7.17-4.41-9.86a5.9,5.9,0,0,0-2.13-1.47c-2.9-.94-5.23,2.64-5.18,5.53s1.06,6-.56,8.5c-3.12-2.39-8.73-.07-9,3.71-.08,1.21.28,2.51-.32,3.59-.51.92-1.62,1.48-2,2.45s0,2,0,3a3.89,3.89,0,0,1-4,3.82A4,4,0,0,1,858,447a4,4,0,0,0-.84-2,2.87,2.87,0,0,0-1.22-.51l-4.45-1.07c-2.72-.66-6.37-1-7.57,1.42-1.13,2.19.76,5.35-1.13,7a3.79,3.79,0,0,1-1.51.73A8.75,8.75,0,0,1,831,447.36c-.39-1.2-.51-2.55-1.37-3.52-2.19-2.47-6.57-.3-9.85-1.25-4.55-1.32-4.77-7.63-8.51-10.4a7.05,7.05,0,0,0-9.43,1.62,6.54,6.54,0,0,0-.56.91,10.07,10.07,0,0,1-8.77-6.47c-.64-1.94-.63-4.09-1.63-5.9-1.92-3.46-7.74-4.18-10.54-1.29-2,2-2.26,5-2.43,7.8a43.29,43.29,0,0,1-.9,8.57,17.28,17.28,0,0,0-.58,3.26c-.49,6.72-3.92,12.76-4.88,19.38A65.59,65.59,0,0,0,779.75,502a54.09,54.09,0,0,0,19.38,20c12.25,7,27.38,8.19,41.7,7.21a208.53,208.53,0,0,0,30.28-4.55c5-1.1,9.93-2.33,14.88-3.63a87.34,87.34,0,0,0,9.56-2.67,35.37,35.37,0,0,0,3.26-1.78,20.26,20.26,0,0,1,5.32-1.45,260.5,260.5,0,0,1,26.09-3.9q3.54-.35,7.11-.6c40.17-2.82,80.88,3.66,120.69-2.09,4.25-.62,8.51-1.39,12.29-3.33,4.61-2.39,8.06-6.35,11-10.48,10.21-14.68,14.54-32.61,13.82-50.15-.65-15.6-5.15-30.9-11.89-45.12C1081.8,396.59,1080.72,392.34,1077.08,391.48Z"/><path class="cls-6" d="M833.55,469.15c0-1.76,0-4.45,1.83-4.24s1.34,3,2.6,4.2a4.07,4.07,0,0,0,2.46.85,13.6,13.6,0,0,0,5.43-.1,4.14,4.14,0,0,0,3.19-3.71c-.06-1.47-1.25-2.68-1.61-4.1a4,4,0,0,1,1.81-4.15c.56-.38,1.25-.48,1.8-.83a2.46,2.46,0,0,0,.85-1.19A13.11,13.11,0,0,0,853.2,451a.83.83,0,0,1,1.09-1,10.82,10.82,0,0,1,3.47.69,3.52,3.52,0,0,1,2.2,2.47c.23,1.53-1.07,3-.71,4.54a3.78,3.78,0,0,1,.28,1.45,3.45,3.45,0,0,1-.87,1.34c-.33.43-.53,1.08-.13,1.45.17.16.71.23,1,.36a3.71,3.71,0,0,1,.88.65,3.78,3.78,0,0,1,1.06,1.92c.16.72-.17,1.3-.11,2a3.71,3.71,0,0,0,1.2,2.26c1.35,1.2,3.66.85,5.07-.29a10.72,10.72,0,0,0,2.81-4.47,11.85,11.85,0,0,1,8.17,2.82,11.7,11.7,0,0,0,3,2.33c2.86,1.17,6-1.27,7.32-3.94,1.06-2.16,1.53-4.52,2.58-6.69.2-.42.41-.84.57-1.27a7.69,7.69,0,0,0,.45-1.88,12.93,12.93,0,0,0-.43-6.81c-.51-1.26-1.28-2.43-1.69-3.73a3.88,3.88,0,0,1,.63-3.84c1.2-1.23,3.66-1.57,3.84-3.24a4.17,4.17,0,0,1,.07-.93c.28-.87,1.25-.68,1.9-1.06a6.35,6.35,0,0,0,1.62-2,13.55,13.55,0,0,1,2.26-3.27c1.07-.87,2.81-1.18,3.73-.21s.4,2.8,1.07,4c1.06,1.81,4.25,1.63,5.24,3.5.49,1,.11,2.12.25,3.19.39,2.92,5.39,3.93,7,1.41.56-.89.74-2,1.56-2.73,2.94-2.46,7.82,4,10.82,1.62-.77-4,3.72-8.05,8-7.16l.38,2.83a19.91,19.91,0,0,1,9.82-3,11.93,11.93,0,0,1,4.83,1.06c1.22.58,2.13,2,3.25,2.43.57.24,1.28,0,1.89.35a5.11,5.11,0,0,1,2.41,3.52c.38,2.06,0,4.29,1.06,6.16a10.48,10.48,0,0,0,3.88,3.53,8.2,8.2,0,0,0,4.59,1.75c1.68-.07,3.35-1.7,2.68-3.15,2.43-.36,5.31-.56,6.92,1.2a11.33,11.33,0,0,1,1.54,3.19,9.24,9.24,0,0,0,11.79,4.62,8.59,8.59,0,0,0,5.48-6.5c.42-2.45.18-5.74,2.68-6.55a7.4,7.4,0,0,1,3.34.16c6,.68,11.46-3.24,12.36-8.85a29.62,29.62,0,0,0,21.62,3.94,4.92,4.92,0,0,1,.64-7.23,5.73,5.73,0,0,1,5.74-.77c4.43,1.84,4.25,7.71,3.42,12.19s-1.07,10.31,3.26,12.26c2.21-4.44,10.13-4.75,12.76-.49,1.24,2.06,1.28,4.6,2.51,6.67,1.07,1.73,2.82,3,4,4.61,4.5,6.18-.74,14.22-2.6,21.5-.83,3.23-1,6.72-2.89,9.53s-5.21,4.45-8.44,5.8c-32.47,13.52-69.71,9.42-105.08,6.55-6.25-.51-12.59-1-18.75.16a28,28,0,0,0-10.72,4.26,21.81,21.81,0,0,1-6.78,3.57c-7.51,2-14.88,4.38-22.43,6.26a300.38,300.38,0,0,1-48.67,8c-16.09,1.25-32.87,1.1-47.63-5.1-16.38-6.9-28.74-20.9-35.72-36.48-2.79-6.22-4.83-12.84-4.93-19.59-.14-8.16,2.53-16.08,4.08-24.1,2-10.13,2.38-21.11,8.86-29.4a13.49,13.49,0,0,1,5.53-4.47c1.34-.51,3.1-.86,4.25.23s1.16,2.57,1.17,3.86a22.73,22.73,0,0,1-.7,5.44,32.18,32.18,0,0,0-1.2,8.61c.2,5,2.71,10.17,7.44,12.32,2.39,1.08,5.17,1.33,7.44,2.63a15,15,0,0,1,3.54,3.2,2.94,2.94,0,0,0,1.28.71l3.85,1.49a2.9,2.9,0,0,0,2.41.19,3.51,3.51,0,0,0,1.07-1.2,5.61,5.61,0,0,1,5.81-2.17c1.9.47,2.65,1.74,3.51,3.23a3.11,3.11,0,0,1,.5.84,10,10,0,0,1,0,2.45,4,4,0,0,0,2.24,3.48c1.2.6,2.64.63,3.9,1.1a5.22,5.22,0,0,1,3.26,3.66,3.24,3.24,0,0,1-.19,2.21c-.83,1.65-3.43,2.51-3.3,4.34a3.56,3.56,0,0,0,1.41,2.14l1.82,1.68a2,2,0,0,0,.74.5,2.24,2.24,0,0,0,.73,0,9.22,9.22,0,0,0,3-.41,11.07,11.07,0,0,0,2.19-1.41A6.25,6.25,0,0,0,833.55,469.15Z"/></g></g></g></g></g></svg>