<svg xmlns="http://www.w3.org/2000/svg" xmlns:xlink="http://www.w3.org/1999/xlink" viewBox="0 0 1077.86 500"><defs><style>.cls-1{fill:none;}.cls-2{clip-path:url(#clip-path);}.cls-3{fill:url(#linear-gradient);}</style><clipPath id="clip-path"><rect class="cls-1" width="1077.86" height="500"/></clipPath><linearGradient id="linear-gradient" x1="550.31" y1="37.72" x2="550.31" y2="482.92" gradientTransform="matrix(1, 0, 0, -1, 0, 522)" gradientUnits="userSpaceOnUse"><stop offset="0" stop-color="#068a9c"/><stop offset="0.13" stop-color="#06748b"/><stop offset="0.39" stop-color="#064e6d"/><stop offset="0.63" stop-color="#063357"/><stop offset="0.84" stop-color="#06224a"/><stop offset="0.99" stop-color="#061c45"/></linearGradient></defs><g id="Layer_2" data-name="Layer 2"><g id="Layer_1-2" data-name="Layer 1"><g id="Layer_2-2" data-name="Layer 2"><g id="layer_1-2-2" data-name="layer 1-2"><g class="cls-2"><path class="cls-3" d="M1074.76,304.93c-1.6-.14-3.24-.12-4.84-.37-1-.14-1.79-.57-2.73-.74a85.34,85.34,0,0,0-9.59-.66c-6.47-.4-12.94-.74-19.46-.91-17.4-.46-35,.3-51.9,4.39-5,1.22-10.09,2.74-15.27,2.48s-10.33-2.39-15.09-4.57c-5.39-2.44-10.62-5.42-16.28-7.27a10.63,10.63,0,0,1-2.49-1.15c-4-2.56-7.54-5.4-12-7.48-11.86-5.58-25.94-7.38-38.81-4.11-22.63,5.72-39.74,26.42-39.88,48.15-14.91,2.61-26.9,12.88-30.89,26.46a255.08,255.08,0,0,0-77.1,12.2c-3.23,1-6.69,2.11-9.81.95-3.32-1.24-5-4.55-6.71-7.48-10.4-18-31.15-30-53-32.69s-44.39,3.43-62.58,14.95c-4,2.5-7.85,5.31-12.47,6.42-7.7,1.84-15.59-1.33-23.18-3.48-20.15-5.68-41.73-4.24-62.73-2.74-11.36.81-25.1,3.21-28.91,13.18L439,350.8l-26.56-6.39c-4.41-1.06-8.82-2.24-13.26-3.19-4.13-.88-7.94.89-12.11-.73-7.21-2.8-13.63-7.05-21-9.42-7.05-2.24-13.54-5.32-20.82-7.05s-15-3.46-22.24-1.57-13.56,8.78-11.55,15.51c-12.11-2.29-23.93,5-26.4,16.19a19.43,19.43,0,0,0,.22,9.19,97.08,97.08,0,0,0-49.71-11.09c-2.68.12-5.9,0-8.49.76-3.77,1.05-5.71,4.48-10.46,3.85-2.8-.37-5-2.39-7-4.21-9.24-8.27-21-15-33.84-15.23s-26.37,7.68-28.42,19.44a21.62,21.62,0,0,0-17.78.29,29,29,0,0,0-32.33-3.23c3-15.12-2.74-30.59-15.09-40.84a45.21,45.21,0,0,0-8.44-5.4,51.37,51.37,0,0,0-20.48-5.19,50.69,50.69,0,0,0-10.66.67c-1.73.3-3.47,1-5.2,1.16-.63,0-1.27,0-1.9-.05-4.15.06-8.55,1.22-12.61,1.94l-53.36,9.36V520.44H1131.2l-19.4-207.3C1100,309.68,1087.16,306.06,1074.76,304.93Z"/></g></g></g></g></g></svg>