<svg xmlns="http://www.w3.org/2000/svg" xmlns:xlink="http://www.w3.org/1999/xlink" viewBox="0 0 1083.71 521.3"><defs><style>.cls-1{fill:none;}.cls-2{clip-path:url(#clip-path);}.cls-3{fill:url(#linear-gradient);}.cls-4{fill:url(#linear-gradient-2);}.cls-5{fill:url(#linear-gradient-3);}.cls-6{fill:url(#linear-gradient-4);}.cls-7{fill:url(#linear-gradient-5);}.cls-8{fill:url(#linear-gradient-6);}</style><clipPath id="clip-path"><rect class="cls-1" width="1083.71" height="521.3"/></clipPath><linearGradient id="linear-gradient" x1="121.46" y1="-139.28" x2="121.46" y2="-27.38" gradientTransform="matrix(1, 0, 0, -1, 0, 524)" gradientUnits="userSpaceOnUse"><stop offset="0" stop-color="#0f709a"/><stop offset="0.26" stop-color="#0c517d"/><stop offset="0.55" stop-color="#093663"/><stop offset="0.8" stop-color="#082553"/><stop offset="0.99" stop-color="#071f4d"/></linearGradient><linearGradient id="linear-gradient-2" x1="911.89" y1="-165.65" x2="911.89" y2="-16.85" xlink:href="#linear-gradient"/><linearGradient id="linear-gradient-3" x1="53.07" y1="207.13" x2="112.63" y2="63.24" xlink:href="#linear-gradient"/><linearGradient id="linear-gradient-4" x1="184.18" y1="191.55" x2="246.62" y2="72.45" xlink:href="#linear-gradient"/><linearGradient id="linear-gradient-5" x1="764.05" y1="258.32" x2="862.91" y2="56.27" xlink:href="#linear-gradient"/><linearGradient id="linear-gradient-6" x1="870.33" y1="281.96" x2="997.74" y2="75.05" xlink:href="#linear-gradient"/></defs><g id="Layer_2" data-name="Layer 2"><g id="Layer_1-2" data-name="Layer 1"><g id="Layer_2-2" data-name="Layer 2"><g id="layer_1-2-2" data-name="layer 1-2"><g class="cls-2"><path class="cls-3" d="M294.13,538.71H-41.25c-3,0-7,.46-10,.46V366.76c0-1.43,1.72-3.68,1.72-5.1q45.51-2.84,90.59-9.93l.24.15c28.4,17.13,59,30.34,89.77,43.23l1-.19a307.74,307.74,0,0,0,57.44-17.48l1.34.36c28.08,7.48,52.95,25.71,80.2,36A123.6,123.6,0,0,0,288.6,419Z"/><path class="cls-4" d="M1125.58,371l-2.37,172.53H703.88c-.83.26-4.11-.71-5-.71V415c0-.8-.7-1.25-.7-2.08a884.46,884.46,0,0,0,116-50.05l.87.26c15.29,4.49,31.71,9.08,47.28,12.39l.12-.07c27-16.39,53.36-32.2,80.32-48.6l.62.17c36.29,9.32,68.66,31.28,105.2,39.76h0a109,109,0,0,0,28.78-22.1C1092.88,353.7,1110.09,361.92,1125.58,371Z"/><path class="cls-5" d="M133,401.66a7.81,7.81,0,0,1-1,3.06c-2.51,3.61-8.67,2.08-12.2,1.34a101.33,101.33,0,0,0-17.09-2.21,97.86,97.86,0,0,0,25.71,10.43A28.61,28.61,0,0,1,126,428.79a19.79,19.79,0,0,1-2.69,4.17c-2,2.6-6.5,2.26-9.42,2.27-11.3,0-22.11-4.31-32.33-8.53L48.11,412.92a56.51,56.51,0,0,1,20.81,3.62c6.29,2.38,12.09,5.87,18.43,8a45.61,45.61,0,0,0,17.34,2.08q-5.5-2.73-11.18-5.21c-1.88-.83-3.78-1.62-5.69-2.4-1.6-.65-3.84-1.12-5.15-2.22s-2.17-2.32-3.4-3.34A25.19,25.19,0,0,0,72.86,410q-4-1.69-8.06-3.13c-2.47-.83-4.95-1.57-7.46-2.23-5.77-1.5-11.82-2.6-16.7-5.9a2.91,2.91,0,0,1-1.08-1,3,3,0,0,1-.13-2,103.77,103.77,0,0,1,3-12.78,16,16,0,0,0,4.07,4.27,22.69,22.69,0,0,0,3.65,1.66l3.46,1.54L81.8,403.06,48.49,377.82A10.4,10.4,0,0,1,44.93,374a4,4,0,0,1,.39-3.85,7.36,7.36,0,0,0,1.08-4.87c-.35-2-1.81-3.72-2.68-5.49a24.19,24.19,0,0,1-2.38-7.95c28.4,17.13,59,30.34,89.77,43.23l1-.19c.46-.1,1.28,2.58,1.34,2.93a7.52,7.52,0,0,1-.31,3A4,4,0,0,0,133,401.66Z"/><path class="cls-6" d="M271,413.78a27.76,27.76,0,0,1-.93,3.44l-2.3,7.3a4.73,4.73,0,0,1-4.74,4.17,27.92,27.92,0,0,0-4.34.74l-4.5.74q-4.41.7-8.86,1.26c-1.5.18-3,.36-4.53.49-1.08.08-2.07-.19-3.14-.11-3,.24-5.92.57-8.88.84a10.35,10.35,0,0,1-3.88-.13,11.06,11.06,0,0,1-3.71-2.41c-12.93-10.83-31-14.73-43.62-25.89q6.5,2.26,13.15,4.33a63.67,63.67,0,0,0,6.38,1.83,49,49,0,0,1,5.68,1.75l7.77,2.53q8.19,2.7,16.36,5.47c-.61-.21-1.35-1.14-1.83-1.54-.83-.67-1.66-1.33-2.51-2-1.67-1.29-3.4-2.55-5.15-3.76a117.26,117.26,0,0,0-11.63-7.06c-3.43-1.82-7.11-3.19-10.48-5.08-2.32-1.29-5.18-2.56-6.61-4.81l2.44-4.7a1.4,1.4,0,0,1,.72-.77,1.43,1.43,0,0,1,.93.17L210,397.8l-20.39-13a29.25,29.25,0,0,1,.83-3.91c.19-1,.37-2.08.53-3.07C219,385.28,243.82,403.49,271,413.78Z"/><path class="cls-7" d="M862.44,375.4c0,1.35-.06,2.71-.09,4.06a22.17,22.17,0,0,1-1.15,7.91,2.42,2.42,0,0,1-.31.72,18.58,18.58,0,0,1-2.17,3.32,14.76,14.76,0,0,0-1.56,2.58,16.24,16.24,0,0,1-2.49,3.13l-2.9,3.38a2.65,2.65,0,0,1-1,.84,2.72,2.72,0,0,1-1.33,0,61.45,61.45,0,0,1-15.61-4.88,70.11,70.11,0,0,1,12.28,8.67c-1.36,1.37-2.64,2.81-4.07,4.11a13.72,13.72,0,0,0-1.35,1.29,9.06,9.06,0,0,1-1.68,1.4l-4.14,3.13a5.32,5.32,0,0,1-2.42,1.23,5.13,5.13,0,0,1-3.25-1.12,57.32,57.32,0,0,1-10.51-8.73,34,34,0,0,1,3.53,11.85,10.55,10.55,0,0,1-1.9.7,20.36,20.36,0,0,1-2,.53,21.31,21.31,0,0,1-4.21.48,47.14,47.14,0,0,0-7.76,1,24,24,0,0,0-9.19,3.58c3.25-2.68,4.78-6.74,7.26-10.07,2.93-4,6.45-5.63,6.87-10.48a5.36,5.36,0,0,1,.38-2,10.83,10.83,0,0,0,.48-1.35l1-2.85a1.47,1.47,0,0,1,.41-.7,1.36,1.36,0,0,1,.86-.2,7.24,7.24,0,0,1,3.16.79,55.62,55.62,0,0,1-4.1-4.17,3.48,3.48,0,0,1-.82-1.25,3.3,3.3,0,0,1,0-1.4l.32-3.3a8.17,8.17,0,0,1,.48-2.85,18.26,18.26,0,0,0,1.08-5.21,2.47,2.47,0,0,1,.41-1.23c.55-.66,1.59-.6,2.45-.49,9.48,1.29,19,2.59,28.07,5.69q-16-5.43-32.38-9.72a11.25,11.25,0,0,0,.86-2.69,15.53,15.53,0,0,0,.5-2c0-.51.75-6,.72-6,15.29,4.49,31.71,9.08,47.28,12.39Z"/><path class="cls-8" d="M1048.58,366.73a42.61,42.61,0,0,1-6.78,4.65,64.81,64.81,0,0,1-7.33,3.5,8.24,8.24,0,0,0-1.4.76,14.53,14.53,0,0,1-2,.93l-4.11,1.86a3.64,3.64,0,0,1-3.32.21l-4.24-1.22a37.1,37.1,0,0,1-5.8-2.08,44.68,44.68,0,0,1-7.26-5.06,161.7,161.7,0,0,0-17.1-11.14c5.78,4.48,11.69,9.09,15.92,15a31.23,31.23,0,0,1,2.74,4.57c.21.42.39.85.58,1.28s.33.66-.23,1c-.8.51-1.7.89-2.48,1.43a10,10,0,0,1-3.72,1.9,12.6,12.6,0,0,1-6.28.1c-5.74-1.62-8-8.29-12.64-11.89l4.67,8.62A7.5,7.5,0,0,1,989,385a2.69,2.69,0,0,1-2.47,2.67,3.84,3.84,0,0,1-1.21-.3,18.63,18.63,0,0,1-5-2.84c-1.54,1.88-.18,4.9-1.55,6.89-.79,1.17-2.24,1.65-3.42,2.37-1.81,1.1-3.65,2.14-5.49,3.23a13.73,13.73,0,0,0-2.3,1.87,13.08,13.08,0,0,1-3.25,1.81,2.42,2.42,0,0,1-1.86.3c-2.68-.35-5.48-.76-7.65-2.32a16.15,16.15,0,0,1-1.26,5.88,9.09,9.09,0,0,1-4.06,4.45c-.64.33-1.34.33-2,.65-2.88,1.39-5.82,2.69-8.83,3.81-19.06,7.16-41.67,2.16-62.07,3.73.36-.52.74-1,1.08-1.52a44.34,44.34,0,0,1,10.4-8.88c3.92-2.57,8-4.85,11.92-7.41.95-.64,1.9-1.28,2.83-1.95a8.34,8.34,0,0,0,1.7-2.09,14.17,14.17,0,0,1,6.3-4.17,4.19,4.19,0,0,1,2-.33,4.36,4.36,0,0,1,1.66.7,60.79,60.79,0,0,1,7.5,5.21l-6.93-8.08a5.86,5.86,0,0,1-1.31-2.09c-.44-1.56.52-3,1.27-4.36a5.6,5.6,0,0,0,.81-2,3,3,0,0,1,.29-.91c.94-2,2.16-3.86,3.25-5.75a7.74,7.74,0,0,1,1.08-1.49c.29-.29.63-.52.9-.82a19.69,19.69,0,0,0,2.17-3.53l4.56-7.68a77.65,77.65,0,0,1,20.3,16.41,17.86,17.86,0,0,0,3.25,3.13,16.38,16.38,0,0,0,4.55,1.88l13.52,4.06c-4.21-3.93-11.54-3.24-15.74-7.19a22.17,22.17,0,0,1-2.8-3.62,77.2,77.2,0,0,0-5-6,2,2,0,0,1-.63-1.16,134.72,134.72,0,0,1,15.81,5.58A45.55,45.55,0,0,0,950,364.83a17.7,17.7,0,0,0-4.33-1.69c-1.43-.32-2.87-.5-4.34-.85-2.89-.7-4.55-2.75-6.56-4.82a7.37,7.37,0,0,1-2.17-3.31c-.44-1.91,1.48-3.23,1.77-5,.32-2.09,1.81-4,3-5.65a1.75,1.75,0,0,1,.8-.72,1.9,1.9,0,0,1,1.36.2,59.64,59.64,0,0,1,12,6.88,34.81,34.81,0,0,0-6.77-7.15c-1.31-1-3-1.93-3.84-3.42a4.18,4.18,0,0,1,0-3.36c.38-1.24,2.86-9,2.41-9.09C979.67,336.29,1012,358.24,1048.58,366.73Z"/></g></g></g></g></g></svg>