<svg xmlns="http://www.w3.org/2000/svg" xmlns:xlink="http://www.w3.org/1999/xlink" viewBox="0 0 1000 500"><defs><style>.cls-1{fill:none;}.cls-2{isolation:isolate;}.cls-3{clip-path:url(#clip-path);}.cls-4{fill:#0f141c;mix-blend-mode:screen;}</style><clipPath id="clip-path"><rect class="cls-1" width="1000" height="500"/></clipPath></defs><g class="cls-2"><g id="Layer_2" data-name="Layer 2"><g id="layer_1-2" data-name="layer 1"><g class="cls-3"><path class="cls-4" d="M1026.31,129.14c-13.83.81-26.19,8.48-37.88,15.91-2.86,1.83-5.79,3.71-7.82,6.43-2.27,3-3.2,6.84-4.69,10.34-5.32,12.5-17.9,20.75-31,24.17s-27,2.7-40.55,1.76c-9.74-.68-19.59-1.49-28.82-4.68-9.63-3.34-18.66-9.28-28.85-9.6C832,173,822.59,184.59,817.31,196.7a94.39,94.39,0,0,1-4.88,9.49c-2.18,3.78-4.95,6-8.66,8.2a254.29,254.29,0,0,0-48.87,37.5c-3.42,3.35-6.82,6.86-11.06,9.08-7.53,3.93-16.53,3.25-25,2.47l-40.39-3.72c-3-.28-6.41-.81-8-3.37s-.34-6.09.16-9.2c1.12-6.91-2.77-14-8.58-17.65-3.8-2.38-8.72-1.67-12.15-4.63-2.29-2-3.31-5-5.23-7.24-3.07-3.65-7.81-4.82-12.24-5.95-5.83-1.49-11.61-1.48-17.46-2.41,10.3,1.64,14.76,14.81,24.44,18.69,5.29,2.13,12.19,1.56,15.6,6.12,2.82,3.78,1.61,9.22-.65,13.36s-5.46,7.87-6.58,12.45a8.42,8.42,0,0,0-.11,4.05,8.24,8.24,0,0,0,4.15,4.78c11.11,6.22,24.5-4.53,37.19-3.42,6.2.54,11.68,3.84,17.12,6.57,7,3.49,14.26,5.51,22.08,4,9.14-1.75,16.61-8.21,23.1-14.88,14.57-14.94,28.31-33.14,48.65-37.84a19.85,19.85,0,0,1,9.56-.26c2.93.78,5.48,2.56,8.05,4.18a83.85,83.85,0,0,0,38.69,12.54c10.05.68,22.16-1.87,25.83-11.26.91-2.32,1.2-4.9,2.52-7,4.36-7,15.1-4,23.12-6.11,3.34-.85,6.33-2.69,9.6-3.8,14.27-4.83,28.85,5.09,41.43,13.39s30.06,15.23,41.73,5.69c7.22-5.9,9.37-16.28,16.21-22.61,5-4.63,11.91-6.54,17.64-10.24s10.5-10.92,7.61-17.1a104.51,104.51,0,0,0-39.45,16.5C991,205,978.89,215.88,965.15,213.24,964,204,974,197.63,982.55,194s18.74-9.11,18.75-18.42c0-1.79-.4-3.64.18-5.33,1.2-3.49,5.61-4.38,9.25-5a85.4,85.4,0,0,0,37.71-15.86,5.33,5.33,0,0,0,2.42-3.05,5.44,5.44,0,0,0-1.15-3.58C1044.85,134.77,1035.68,128.59,1026.31,129.14Z"/><path class="cls-4" d="M-14.17,54.2q1.77,18.3,3.56,36.6a131.09,131.09,0,0,0,57.39,1.39,31.09,31.09,0,0,0,8.62-2.74c2.89-1.55,5.29-3.87,7.94-5.81,9.65-7,22.14-8.57,34-9.86,14.28-1.56,28.64-3.11,43-2.18,7.27.47,14.4,2.19,21.64,2.73,2.09.16,4.06-.52,6.15-.51,5.77,0,11.85,1.68,17.46,2.9a197.88,197.88,0,0,1,21.9,6.08c4.6,1.56,9.26,3.38,12.58,6.41,4,3.63,5.55,8.52,8.52,12.72,6.93,9.83,21.47,15.22,35.3,15.23,9.31,0,18.25-2.08,27.14-3.88a37.21,37.21,0,0,1,6.25-.9c2.49-.07,4.93.31,7.41,0,3.94-.51,7.81-1.81,11.6-2.77l12.48-3.16c9.44-2.38,20.41-4.62,28.89-.16,1.7.89,3.35,2.28,3.21,3.89s-2.14,2.82-3,4.34c-1.31,2.24.11,5.1,2.5,6.77s5.52,2.42,8.56,3c4.7,1,9.88,1.66,14.08-.11,8.22-3.45,8.38-14.39,17.07-17,5.45-1.66,11.53.87,16.67,3.3a13.33,13.33,0,0,1,4.55,3.09c1.25,1.51.46,2.52.71,4.09.32,2.08,2.84,2,4.9,2,2.82,0,5.94-.33,8.54.86,4,1.83,3.69,6,6.53,8.56,1.75,1.57,4.43,2.17,7,2.55,17.94,2.63,38.43-1.81,53.07,7.21-4.36-9.82-19.69-13-32.5-13.17-5.94-.08-12.56,0-17-3.3-2.26-1.65-3.61-3.93-5-6.09a74.55,74.55,0,0,0-9-11c-2.88-2.92-5.89-6.56-10.53-7.48-8.6-1.72-10.74-10.39-18.95-12.64-5.25-1.44-12.25.32-15.57-3.3a12.44,12.44,0,0,1-1.93-3.74c-2.37-5.43-8.45-9.45-15-11.65S362.69,63.62,355.65,63c-3.7-.33-8.25-.32-10,2.26a5,5,0,0,0-.27,4.38c1.2,3.63,4.27,6.67,6.4,10s3.21,7.66.48,10.59-7.7,3.23-12.17,3.26q-7,.06-14-.3c-6.3-.31-12.6-.88-18.85-1.68-4.57-.59-9-1.3-13.49-.39-3.27.65-6.28,1.69-9.69,1.93a41,41,0,0,1-17.44-2.59C257.06,86.7,249.37,77.56,252.4,69c1-2.77,3-5.47,2.31-8.33-.42-1.85-1.91-3.44-3.37-4.93-2-2-4-3.9-6-5.75-6.93-6.22-13.95-11.4-22.9-14A88.31,88.31,0,0,1,210,30.75a132.22,132.22,0,0,0-16.49-6c-3-.95-6.2-1.91-9.32-1.33-5,.93-8.66,6-8.8,11.1s2.73,10,6.74,13.16a4.68,4.68,0,0,1,2.05,2.49,3.61,3.61,0,0,1-.67,2.43c-3.93,6.4-12.7,7.37-20.21,7.38q-11.91,0-23.8-.91a304.78,304.78,0,0,1-36.84-5.14C97.27,52.81,90.89,52.18,86,49.6a42.85,42.85,0,0,0-4.39-2.46,29.69,29.69,0,0,0-6.72-1.36A101.8,101.8,0,0,0,53,45.18c-5.12.41-10.71,1.13-15.16-1.09C32.39,41.38,31.1,35.65,28.5,31,23,21,8.74,15.31-4.21,16.15c-6.59.42-11.07,3.47-13.18,9.83-1.27,3.82-.39,6.62.79,10.27,1.71,5.29,1.76,11.08,2.29,16.58Z"/><path class="cls-4" d="M922.37,76.32l-39.81-2a46.2,46.2,0,0,1-8.85-1c-5-1.28-8.43-4.18-12.86-6.11-16-6.95-38.7.33-58.24-1.22-8.11-.64-17-2.72-24.07.21-6.95,2.88-8.71,9.37-15.82,12.06-5.71,2.16-12.65,1.08-19.12,1-18.84-.06-35.17,9.3-47.62,18.83-4,3-7.83,6.23-9.88,9.92-1.52,2.74-2,5.64-2.62,8.49a39.39,39.39,0,0,1-12,21.11c-6.93,6.22-17.83,11-29.43,11.39-4.87.16-9.66-.43-14.51-.52a66.35,66.35,0,0,0-30.21,6.49c-4.77,2.4-8.84,5.37-13.84,7.56-16.48,7.22-41.45,2.88-48.6-8.45-8.84,1.71-16.7-.47-25.52-1.59-28.86-3.66-61.77,10.38-68.46,29.21A165.72,165.72,0,0,1,491.8,172c43.38-1.53,86.43,13.25,128.23,4.3,7.77-1.66,15.26-4.12,23.27-5,11.4-1.29,23.34.63,34.27-2,8.87-2.16,15.59-7,21.61-11.76A283.31,283.31,0,0,0,724.35,135c5.36-5.39,10.54-11,18.22-15.15,12.66-6.76,31.33-8.94,40-17.88,2.13-2.19,3.55-4.7,6.46-6.48s7.06-2.62,11-3.13c22-2.87,44.19.84,66.43.63,27.86-.27,56-7,78.21-18.6A76.79,76.79,0,0,1,922.37,76.32Z"/><path class="cls-4" d="M762.64,92.93a72.21,72.21,0,0,1,24.94-9.19c4.4-.78,9.44-1.15,13,.51,2.07,1,3.3,2.54,5.27,3.61,7.17,3.89,19.28-.41,28,2,5.68,1.53,8.91,5.67,14.83,6.84,5.29,1,11.12-.58,16.26-2.24,13.2-4.24,27.8-9.09,41.51-6.66,11.67,2.06,21,9.24,33.25,8.23,5-.41,9.48-2.15,13.81-3.85,17.73-7,36.79-15.58,41.7-28.38l9.25,1.27c-4,4.93-8,9.89-11,15.08s-5,10.76-8.33,16c-1.91,2.94-4.9,5.1-7.26,7.85a21.71,21.71,0,0,1-9.66,6.83c-2.07.69-4.33,1.08-6.42,1.73-7,2.2-11.24,7.66-9.65,12.37.93,2.74,3.59,5.33,2.64,8.13-.58,1.71-2.42,3.16-4.38,4.41a37.47,37.47,0,0,1-15.3,5.61c-8.29,1-16.83-1.16-22.26-5a17.89,17.89,0,0,1-8-14.61c0-2,.3-4-.48-5.94a7,7,0,0,0-4.77-3.71c-3.22-.94-3.43-1.89-4.86-3.91-1.76-2.48-4.8-2.69-8.74-2-2.32.4-4.57,1-6.89,1.33-1.63.27-3.34.21-4.45.92s-1.81,2.14-2.57,3a149.6,149.6,0,0,1-10.92,11.07c-3,2.69-7.05,5.63-12,5.32-5.43-.34-7.85-4.29-11.88-6.55s-9.21-2.64-14.36-2.43c-2.71.11-5.42.41-8.1.77-5.36.73-10.77-1.21-12.42-4.67-.84-1.77-.74-3.77-2.16-5.35-3.26-3.64-12.37-2.8-17.64,0s-8.43,7-13.41,10-13.58,4.69-18,1.59c-1.15,3.94-8,6-13.68,7.77s-12.15,4.86-11.2,8.75c.32,1.29,1.45,2.41,2.16,3.62,2.69,4.62-2,10.65-9.57,12.27-2.87.61-5.91.61-8.77,1.23a17,17,0,0,0-6.17,2.91c-7.1,4.83-15.92,9.63-26,11.15-5.37.81-11.47.26-15.71-1.86a11,11,0,0,1-2.67-1.8c-1.1-1-1.59-1.45.22-2.23,3-1.28,6.71-1.85,10-2.57,11.13-2.39,22.41-7.88,27.56-14.88,3.7-5,4.13-10.67,7-15.87a43.25,43.25,0,0,1,8.59-10.58c4.31-4,8.75-8.24,16.18-9.86,6.59-1.43,11.85-3.13,16.94-6.33,4.71-2.94,8.67-6.33,13.11-9.43C760.38,94.39,761.49,93.65,762.64,92.93Z"/><path class="cls-4" d="M119.84,160.86c0,3-2.44,5.83-4.53,8.59a52.31,52.31,0,0,0-6.07,10.24c-1.34,3-1.93,6.87,2,8.61,2.18,1,5.12.94,7.85.86l13.69-.36c3.58-.1,7.47-.13,10.21,1.24a11.28,11.28,0,0,1,3.24,2.64l6.93,7.31a5.4,5.4,0,0,1,1.67,2.58c.27,1.89-2,3.57-3.75,5.16-5.6,5-7.66,11.7-4,17.05s13.59,8.75,22.64,7c3.31-.64,6.73-1.9,9.94-1.29a14,14,0,0,1,4,1.64,76.23,76.23,0,0,0,21.84,7.24c4.74.84,10.27,1.24,14.47-.64,2.14-.95,3.66-2.39,5.75-3.38a20.35,20.35,0,0,1,5.43-1.55c13.58-2.14,28.89,3.78,40.65-1.29,4.18-1.8,6.9-4.67,10.32-7s8.44-4.4,13.09-3.56c5.62,1,7.32,5.36,9.72,8.74,5.49,7.75,19.17,12.55,32.7,11.48a67.46,67.46,0,0,0,9.47-1.51,80.1,80.1,0,0,0,19.7-7.21c-18.81-2.2-29.83-14-45-21.05-17.45-8.13-40.64-10-62.8-9-9.75.45-19.85,1.38-28.93-.56-13.78-3-21.82-11.74-33.4-17.24-5.15-2.45-11.28-4.4-14.44-8-1.57-1.79-2.28-3.87-3.84-5.67-3.67-4.24-11.43-6.32-15.72-10.29-2.42-2.25-3.63-5-6.3-7.15-3.06-2.45-7.71-3.81-12.2-5.1-9-2.57-18.28-5.19-28.32-5.16-2.9,0-17.73,1.71-12.73,4.95,2,1.31,5.27,1.9,7.7,2.89a23.67,23.67,0,0,1,6.21,3.52A7.19,7.19,0,0,1,119.84,160.86Z"/><path class="cls-4" d="M414.18,208.08c-10.28,6.13-20.56,12.27-31.77,17.64-15.72,7.54-36.81,13.63-53.39,8.13A29.58,29.58,0,0,1,313.21,222c-1.29-2-2.33-4.13-4.67-5.66-3.06-2-7.61-2.52-11.67-3.36-4.51-.93-7.69-2.35-12.65-2.51a31.79,31.79,0,0,0-12.2,2c-1.63.63-3,1.46-4.63,2.07-3,1.13-5.74,2.66-8.75,3.85a57.62,57.62,0,0,1-14.43,3.74c-9,1-19.19-1.22-22.57-6.48-1.11-1.73-2.19-4-5.15-4-3.47,0-4.46,3.08-6.34,5-4,4.08-14.51,3.06-18.09-.9s-2-9.16.88-13.58c1.47-2.26,3.25-4.85,1.58-6.95a9.56,9.56,0,0,0-3.17-2.15L179,186.76a8.31,8.31,0,0,0-2.81-1c-2.08-.27-4.12.67-6.18,1.11-6.57,1.42-12.89-2.38-14.77-6.52s-1-8.69-2.54-12.9c-1.65-4.6-6.36-8.52-12.51-11A39.49,39.49,0,0,0,130.05,154a10.37,10.37,0,0,1-3.9-1c-4.81-2.41-11-4-17-4.92C67.65,141.6,17.49,170-17.16,154.54-27.28,150-33.11,142.6-38,135.29c-4.32-6.51-8.22-13.41-7.41-20.64-.15,1.33,2.19,3.61,3.06,4.76a44.14,44.14,0,0,0,4,4.53,58.12,58.12,0,0,0,10.44,8,81.67,81.67,0,0,0,12.14,6c2.2.88,4.73,1.46,6.45,2.67,1.27.9,2.55,1.79,4,2.6A51,51,0,0,0,4,147.36a70.76,70.76,0,0,0,22.2,3.39,71.14,71.14,0,0,0,10-.73,6.59,6.59,0,0,0,2.49-.71c1.79-1.13.34-2.92-.42-4.38-2.07-4,2.77-8.69,9-10.48S60.59,133.11,67,134c8.07,1.15,16.83,3,24.49.51A40.84,40.84,0,0,1,96.45,133a24.1,24.1,0,0,1,5.82-.17c6.61.35,13.32.72,19.46,2.19s11.74,4.19,14.11,8.11c.76,1.25,1.22,2.65,2.64,3.63a12.64,12.64,0,0,0,3.38,1.42c6.24,2,12.77,4,19.89,4a12.17,12.17,0,0,1,3.81.3,6,6,0,0,1,1.89,1.11,115.42,115.42,0,0,1,15.65,14.5A42.14,42.14,0,0,0,198,178.77c11.84,5.27,27.4,7.48,42,5.13,1.61-.26,3.2-.57,4.77-.94,4.13-1,8.56-2.28,12.6-1.43,5.75,1.2,7.09,5.84,10.23,9.12,9.05,9.45,31.48,6.8,48.85,3.84,3.05-.53,8.06-.68,10.73-1.78.52-.22.87-.7,1.38-1a10.35,10.35,0,0,1,4.44-1c5.38-.19,15.22,3.63,17.42,7.39,1.93,3.3,3.05,6.34,6.55,9.15,6.51,5.26,17.07,8.64,28,8.09a43,43,0,0,0,5.81-.67c22.57-4.22,32.61-21.14,49.48-31.94,7.6-4.86,16.86-8.56,26.64-11.25,10.37-2.86,21.61-4.62,32.58-4,6.9.38,13.5,1.68,20.14,2.79a375,375,0,0,0,37.28,4.35q9.58.64,19.26.82a24,24,0,0,0,6.61-.84c3.09-.69,5.52-.08,8.57-.08,8.13,0,15.92-3.41,22-6.76,8.14-4.48,17-9.79,27.41-9.46,3.56.12,6.92.92,10.42,1.29,18.54,1.94,35.39-8.17,48.6-17.38,3.14-2.19,6.34-4.43,8.41-7.08,4.38-5.61,3.35-12.58,9.28-17.61,7.88-6.69,23.09-6.38,35.23-9.29,17.69-4.22,28.81-15.42,41-24.81s30.7-18.23,48.12-14.77c5.22,1,9.7,3.09,14.66,4.51a118.4,118.4,0,0,0,17.57,3.11c16.73,2.12,34.18,4.22,51.08,1.33C952,73,972.2,56.7,999.24,52.87c6.42-.91,13.27-1.13,18.91-3.4,4.44-1.8,7.57-4.65,11.17-7.11,18.35-12.57,47.48-14.44,73.6-15.08-4,.1-8.52,1.13-12.39,1.85-4.16.77-8.28,1.69-12.31,2.75a161.6,161.6,0,0,0-23.12,7.93,130.75,130.75,0,0,0-20.2,10.83c-2.28,1.51-4.33,3.1-5.4,5.09a42.71,42.71,0,0,1-2.81,5.28c-2.84,3.93-6,7.77-8.76,11.73s-5.47,8.06-8.26,12.08c-3.13,4.49-6.39,9-10.07,13.3a26.82,26.82,0,0,1-3,3.27c-1,.81-2.08,1.5-2.94,2.37a18.55,18.55,0,0,1-9,5.13c-1.74.43-3.57.67-5.26,1.18a31.43,31.43,0,0,0-6.88,3.46,75.39,75.39,0,0,1-23.17,8.57,49.61,49.61,0,0,1-15.72,1c-4.35-.55-8.24-1.94-12.4-2.88-10.84-2.44-23-1.67-34.66-.87a20.54,20.54,0,0,0-5.95,1,28.9,28.9,0,0,0-4.34,2.58c-3.44,2-8.15,2.83-12.67,3.23a91.94,91.94,0,0,1-26.18-1.34c-7.06-1.42-13.6-3.69-20.74-5a51.19,51.19,0,0,0-12.9-.73,33,33,0,0,0-6.26,1.08c-.89.25-1.76.67-2.68.86-1.48.31-3.44.26-5,.42-2.47.27-4.94.61-7.38,1-7.43,1.24-16.1,3.2-22,6.6-2.83,1.62-6.23,2.28-9.32,3.65a45.7,45.7,0,0,0-9.46,5.8c-4.88,3.77-9.12,8-15,11.07-5.42,2.87-11.95,4.69-17.59,7.36s-10.64,6.69-10.32,11.05c.11,1.51.84,3,.15,4.51-.61,1.27-2.19,2.28-3.74,3.19a164.63,164.63,0,0,1-22.67,11.13,37.35,37.35,0,0,1-11.59,3.07,41.6,41.6,0,0,1-11.47-1.39l-12.17-2.68a13.74,13.74,0,0,0-3.91-.47,14.84,14.84,0,0,0-3.94,1c-11.23,4-24.73,6-36.32,3.35-5.55-1.26-10.36-3.5-15.77-5l-1.49-.37a59.13,59.13,0,0,0-13.17-1.51,61.63,61.63,0,0,0-6.79.34c-3.28.34-6.35-.65-9.42-1.32-3.38-.74-6.72-1.55-10.07-2.33a155.09,155.09,0,0,0-20.14-3.68c-25.54-2.54-51.91,5.49-73.14,16C433,196.88,423.56,202.48,414.18,208.08Z"/><path class="cls-4" d="M370.06,158.62c1.57.23,3.18.34,4.72.41a13.62,13.62,0,0,0,6.1-.66c1.89-.83,3.42-2.87,3-4.88-.34-1.5-1.64-2.59-2.27-4-1.6-3.57,1.9-7.67,5.74-8.42s7.7.68,11.49,1.64c5.51,1.4,13.5,1.82,17.24-3.37,3.42-4.75,11.64-5.52,16.34-2-8,1.39-12.69,9.45-18.26,15.36-13.73,14.58-36.33,17.41-55.9,13.16a20.74,20.74,0,0,1-7.34-2.73c-4.37-3-6.38-8.69-10.95-11.34-3.88-2.25-8.71-1.79-13.13-1.08-6.25,1-14.74,2.29-18.22-4.55-3.7-7.29,4.88-9.89,10.22-11.24a49.21,49.21,0,0,1,13.14-1.18c1.48,0,2.87-.67,4.32-.94a19.22,19.22,0,0,1,9.1.59c5.85,1.78,11.07,6.22,12.86,12.19.84,2.78,1.06,5.84,2.67,8.26C362.89,156.87,366.38,158.09,370.06,158.62Z"/><path class="cls-4" d="M668.11,106.14c6-4,10.9-10.44,11.11-17.66.08-2.76-.51-5.57.1-8.26a17,17,0,0,1,2.84-5.72,57.45,57.45,0,0,1,9.11-10.74c2.87-2.54,4.88-6.1,3.73-10-.56-1.94-1.78-3.74-1.71-5.75.12-3.54,4-5.65,7.34-6.68,3.78-1.15,8-1.82,11.56,0s5.52,6.87,2.92,9.85c1.22-1.4,6.55-1.21,8.24-1.18a34.87,34.87,0,0,1,8.18,1.28c2.77.73,4.35,2.82,6.54,4.47,4.07,3.07,9.24,4.14,14.13,5.14l8,1.64a32.66,32.66,0,0,1-19.13.5c-2.89-.82-5.67-2.05-8.63-2.63a33.26,33.26,0,0,0-8-.14,38.73,38.73,0,0,0-5.47.67c-9,1.74-19.46,3.73-25.14,11.61-5,6.91-4.61,16.32-8.22,24-2.36,5.05-6.33,9.17-10.4,13-4.53,4.24-9.41,8.31-15.17,10.61-7.24,2.89-15.27,2.77-23,4s-15.89,4.27-19.61,11.12c1.79-3.3,5.53-6.38,8.32-8.83a65.7,65.7,0,0,1,10.1-7.28c6-3.51,12-5,18.54-6.9A48.93,48.93,0,0,0,668.11,106.14Z"/><path class="cls-4" d="M733.22,225c2.1-2.66,2.81-6.12,4.13-9.24,2.74-6.44,8.08-11.35,13.27-16a14.31,14.31,0,0,1,5.32-3.52,15.79,15.79,0,0,1,5.14-.27,76.37,76.37,0,0,0,34.13-6.36c-5.65-.43-11.41-.9-16.64-3.09-2.62-1.1-5.14-2.64-8-2.92a18.59,18.59,0,0,0-7.4,1.32l-21.06,6.78c-5.32,1.71-11.13,3.83-13.79,8.74-2.79,5.16-1.25,12-4.68,16.8-4.84,6.7-12.94,3.88-19.57,2.67A50,50,0,0,0,674,223.69c4.19,1.3,8.8-.36,13.09.55a28.24,28.24,0,0,1,6.61,2.82,44.48,44.48,0,0,0,13.73,4.41,38.43,38.43,0,0,0,8,.27,50.73,50.73,0,0,0,6.44-1.35C726.11,229.57,730.42,228.51,733.22,225Z"/></g></g></g></g></svg>