<svg xmlns="http://www.w3.org/2000/svg" xmlns:xlink="http://www.w3.org/1999/xlink" viewBox="0 0 1000 500"><defs><style>.cls-1{fill:none;}.cls-2{isolation:isolate;}.cls-3{clip-path:url(#clip-path);}.cls-4{mix-blend-mode:screen;}.cls-5{fill:#162c3b;}</style><clipPath id="clip-path"><rect class="cls-1" width="1000" height="500"/></clipPath></defs><g class="cls-2"><g id="Layer_2" data-name="Layer 2"><g id="layer_1-2" data-name="layer 1"><g class="cls-3"><g class="cls-4"><path class="cls-5" d="M162.2,92.82c-1.59-2.21-4.84.11-3.82,2.42C159.83,97.79,164.36,95.5,162.2,92.82Z"/><path class="cls-5" d="M139,113.44c-2.29-.35-2.82,3-.8,3.76C140.64,117.85,142,113.73,139,113.44Z"/><path class="cls-5" d="M117.66,84.61c-.25,1.74,2.3,2.12,2.86.59C121,83.36,117.86,82.39,117.66,84.61Z"/><path class="cls-5" d="M95.87,108.73c.41,2.19,3.62,1.61,3.66-.46C99.35,105.88,95.21,106,95.87,108.73Z"/><path class="cls-5" d="M61.15,105.91c2.19.26,2.58-3,.64-3.6C59.47,101.78,58.37,105.74,61.15,105.91Z"/><path class="cls-5" d="M35,127c.76-1.83-1.91-3-3-1.45C31,127.4,34.18,129.35,35,127Z"/><path class="cls-5" d="M18,137c-1.14-1.59-3.48.07-2.74,1.73C16.3,140.58,19.56,139,18,137Z"/><path class="cls-5" d="M9.32,184.57c-1.55,2.11,1.53,4.38,3.34,2.76C14.56,185.25,11.12,181.8,9.32,184.57Z"/></g><g class="cls-4"><path class="cls-5" d="M239,118.15c1.22-.6.36-2.4-.87-2.09C236.75,116.55,237.49,119,239,118.15Z"/></g><g class="cls-4"><path class="cls-5" d="M250.16,101.1c2.09-.15,1.9-3.22,0-3.49C247.86,97.51,247.51,101.42,250.16,101.1Z"/></g><g class="cls-4"><path class="cls-5" d="M296.41,88.9c-1.14.27-.75,1.94.34,1.92C298,90.66,297.83,88.48,296.41,88.9Z"/></g><g class="cls-4"><path class="cls-5" d="M301.79,59.13c0,1.92,2.8,2,3.18.21C305.21,57.29,301.68,56.7,301.79,59.13Z"/><path class="cls-5" d="M274.35,82c2.12,1.78,4.74-1.32,3.15-3.34C275.44,76.46,271.54,79.85,274.35,82Z"/></g><g class="cls-4"><path class="cls-5" d="M536.37,125.7c-.07,1.47,2.09,1.59,2.44.26C539.06,124.39,536.36,123.83,536.37,125.7Z"/><path class="cls-5" d="M516.9,123.06c.48-1.46-1.65-2.16-2.36-.92C513.86,123.64,516.41,124.94,516.9,123.06Z"/><path class="cls-5" d="M486.78,123.12c-2-1.71-4.58,1.27-3,3.22C485.72,128.42,489.48,125.15,486.78,123.12Z"/><path class="cls-5" d="M476,117.75c-.42-2.3-3.8-1.7-3.85.48C472.28,120.74,476.65,120.63,476,117.75Z"/><path class="cls-5" d="M443.56,94.36c1.19-.48.5-2.23-.67-2C441.55,92.71,442.08,95.05,443.56,94.36Z"/><path class="cls-5" d="M431.15,80.29c.52,1.45,2.65.68,2.45-.74C433.2,77.94,430.38,78.49,431.15,80.29Z"/><path class="cls-5" d="M405.71,107.56c-1.08-.89-2.4.68-1.59,1.7C405.17,110.34,407.13,108.62,405.71,107.56Z"/><path class="cls-5" d="M386.55,68.05c-1.34-.46-2,1.51-.89,2.18C387,70.87,388.28,68.53,386.55,68.05Z"/><path class="cls-5" d="M350.85,89.19c1.68,2.08,4.74-.37,3.61-2.58C352.91,84.18,348.59,86.67,350.85,89.19Z"/><path class="cls-5" d="M329.34,77.33c1.18-1.57-1.12-3.32-2.5-2.12C325.38,76.76,327.94,79.41,329.34,77.33Z"/></g><g class="cls-4"><path class="cls-5" d="M664.09,165.73c1.2,2.26,4.52.51,3.85-1.78C666.92,161.39,662.41,163,664.09,165.73Z"/><path class="cls-5" d="M651.81,154.68c1.52-.08,1.42-2.31,0-2.53C650.19,152.06,649.9,154.88,651.81,154.68Z"/><path class="cls-5" d="M622.54,144.17c2.68.93,4.06-3,1.8-4.35C621.58,138.51,619.08,143.18,622.54,144.17Z"/></g><g class="cls-4"><path class="cls-5" d="M292.58,70.16c-.65,2.64,3.22,3.61,4.32,1.33C297.91,68.73,293.22,66.77,292.58,70.16Z"/><path class="cls-5" d="M267.35,48.08c1.21-.24.86-2-.29-2C265.73,46.17,265.83,48.48,267.35,48.08Z"/><path class="cls-5" d="M244.73,60.9c1.39.93,2.76-1.11,1.67-2.22C245,57.52,242.89,59.83,244.73,60.9Z"/><path class="cls-5" d="M234.62,51.74c-2,.56-1.22,3.54.73,3.41C237.59,54.79,237.14,50.89,234.62,51.74Z"/><path class="cls-5" d="M215.35,33.29c-1.6.72-.54,3.08,1.05,2.72C218.21,35.42,217.33,32.25,215.35,33.29Z"/><path class="cls-5" d="M208.61,25.92c1.61-1,.17-3.34-1.48-2.75C205.3,24,206.65,27.28,208.61,25.92Z"/><path class="cls-5" d="M174.54,32.87c1,.84,2.19-.54,1.48-1.49C175.11,30.37,173.28,31.88,174.54,32.87Z"/></g><g class="cls-4"><path class="cls-5" d="M191.09,68.83c-1.47,1.61.88,3.78,2.53,2.59C195.38,69.87,192.84,66.7,191.09,68.83Z"/><path class="cls-5" d="M172.79,65.29c-.85,1.5,1.34,2.75,2.4,1.55C176.27,65.33,173.75,63.34,172.79,65.29Z"/></g><g class="cls-4"><path class="cls-5" d="M184.47,72.72c.74,2.38,4.23,1.32,4-1C188,69.09,183.38,69.76,184.47,72.72Z"/><path class="cls-5" d="M175.73,77.61c-2-1.83-4.69,1.08-3.22,3.13C174.42,82.93,178.38,79.79,175.73,77.61Z"/><path class="cls-5" d="M155.5,103.14c1.23,1.84,3.94.07,3.18-1.85C157.59,99.17,153.83,100.89,155.5,103.14Z"/><path class="cls-5" d="M141.28,75.82c-1,1.07.53,2.58,1.67,1.81C144.17,76.61,142.51,74.41,141.28,75.82Z"/><path class="cls-5" d="M111.57,103.48c-2.37-1.15-4.06,2.32-2.12,3.81C111.85,108.8,114.65,104.76,111.57,103.48Z"/><path class="cls-5" d="M86.58,71.47c1.15,1,2.65-.67,1.79-1.82C87.26,68.43,85.05,70.26,86.58,71.47Z"/><path class="cls-5" d="M77.16,94c.15-2.4-3.38-2.63-4-.47C72.75,96.05,77.14,97,77.16,94Z"/><path class="cls-5" d="M66,81.58c-1.51-1.58-3.84.63-2.76,2.36C64.7,85.81,68.06,83.48,66,81.58Z"/><path class="cls-5" d="M32.76,89.25c.72,1,2.23,0,1.77-1.09C33.89,87,31.79,88,32.76,89.25Z"/><path class="cls-5" d="M1.64,68c-.5,1.8,2.14,2.54,2.93,1C5.31,67.12,2.13,65.69,1.64,68Z"/></g><g class="cls-4"><path class="cls-5" d="M218,97.56c1.68-1.29-.21-3.76-2-2.9C214,95.85,215.93,99.32,218,97.56Z"/><path class="cls-5" d="M197.58,90.86c-.2,1.79,2.42,2.09,2.94.5C200.94,89.47,197.7,88.59,197.58,90.86Z"/></g><g class="cls-4"><path class="cls-5" d="M158.43,166.26c-1.32-.91-2.66,1-1.64,2.1C158.1,169.49,160.16,167.32,158.43,166.26Z"/><path class="cls-5" d="M145.89,139.52c2,.14,2.26-2.84.43-3.35C144.16,135.78,143.31,139.49,145.89,139.52Z"/><path class="cls-5" d="M134.52,137.45c.29-2.41-3.23-2.85-4-.72C130,139.27,134.31,140.51,134.52,137.45Z"/><path class="cls-5" d="M104.23,151.19c-1.32-1.53-3.58.39-2.67,2C102.79,155,106,153,104.23,151.19Z"/><path class="cls-5" d="M93.35,164.94c-1.2-1.33-3.15.43-2.31,1.86C92.17,168.36,95,166.54,93.35,164.94Z"/><path class="cls-5" d="M59.27,146.26c2.48-.75,1.41-4.39-1-4.19C55.53,142.57,56.18,147.37,59.27,146.26Z"/><path class="cls-5" d="M32.66,176.72c1.15.64,2.09-1,1.17-1.83C32.67,174.07,31.17,176,32.66,176.72Z"/><path class="cls-5" d="M7.6,163.68c1.22-2-1.76-3.82-3.25-2.2C2.81,163.51,6.21,166.34,7.6,163.68Z"/></g><g class="cls-4"><path class="cls-5" d="M187.34,146.67c1.17-2-1.75-3.74-3.2-2.14C182.64,146.53,186,149.28,187.34,146.67Z"/></g><g class="cls-4"><path class="cls-5" d="M245.14,144.8c2.3,1.53,4.55-1.83,2.75-3.65C245.61,139.24,242.13,143,245.14,144.8Z"/></g><g class="cls-4"><path class="cls-5" d="M867.43,231.82c1.72.1,1.87-2.42.33-2.83C865.93,228.68,865.26,231.82,867.43,231.82Z"/><path class="cls-5" d="M858.1,206.69c.86,2.39,4.36,1.14,4-1.2C861.49,202.84,856.84,203.73,858.1,206.69Z"/><path class="cls-5" d="M825.39,205.75c.49-2-2.42-2.72-3.25-1C821.38,206.81,824.9,208.3,825.39,205.75Z"/><path class="cls-5" d="M802,214.76c-.79,1.21,1,2.37,1.93,1.43C805,215,803,213.18,802,214.76Z"/><path class="cls-5" d="M799,179c.63,1.31,2.55.41,2.23-.91C800.67,176.61,798.07,177.38,799,179Z"/><path class="cls-5" d="M769,181.71c-1.18.9.12,2.63,1.37,2C771.74,182.93,770.43,180.5,769,181.71Z"/></g><g class="cls-4"><path class="cls-5" d="M867.49,230.33c-1.27.17-1,2,.17,2.12C869,232.42,869.09,230,867.49,230.33Z"/><path class="cls-5" d="M832.91,232.21c2.69.73,3.79-3.21,1.47-4.4C831.58,226.71,829.44,231.47,832.91,232.21Z"/><path class="cls-5" d="M816,242.56c1.83-.66.87-3.34-.92-3.09C813.08,240,813.77,243.52,816,242.56Z"/><path class="cls-5" d="M798,217.24c-2.1.36-1.6,3.45.39,3.53C800.64,220.63,800.59,216.64,798,217.24Z"/></g><g class="cls-4"><path class="cls-5" d="M856.7,246.78c.27,1.44,2.38,1.06,2.41-.3C859,244.91,856.27,245,856.7,246.78Z"/><path class="cls-5" d="M831.82,221.36c-1.86.09-1.74,2.81,0,3.08C833.78,224.56,834.15,221.12,831.82,221.36Z"/></g><g class="cls-4"><path class="cls-5" d="M968.55,220.78c-1.59.13-1.41,2.46.06,2.65C970.33,223.48,970.55,220.51,968.55,220.78Z"/><path class="cls-5" d="M951.38,225.45c-1.77.74-.69,3.33,1.06,3C954.42,227.85,953.56,224.38,951.38,225.45Z"/><path class="cls-5" d="M927.24,222.41c2.81.4,3.41-3.72.93-4.61C925.21,217,923.66,222.1,927.24,222.41Z"/><path class="cls-5" d="M906.43,184.64c-.47,1.44,1.64,2.15,2.35.92C909.46,184.07,906.93,182.78,906.43,184.64Z"/><path class="cls-5" d="M876.76,184.51c-1.48-.81-2.67,1.35-1.48,2.37C876.77,187.91,878.68,185.42,876.76,184.51Z"/></g><g class="cls-4"><path class="cls-5" d="M922.57,205.78c-1.92,1.69.54,4.53,2.61,3.36C927.45,207.55,924.89,203.51,922.57,205.78Z"/><path class="cls-5" d="M904.39,212.13c1.37,1,2.89-1,1.84-2.18C904.88,208.68,902.58,210.92,904.39,212.13Z"/><path class="cls-5" d="M881.69,193.14c-1.54-1.24-3.37,1-2.21,2.42C881,197.07,883.72,194.6,881.69,193.14Z"/></g><g class="cls-4"><path class="cls-5" d="M825.18,181.63c2.05,0,2-3.06.12-3.4C823.09,178,822.58,181.84,825.18,181.63Z"/><path class="cls-5" d="M807.78,177.17c-.89-1.84-3.59-.55-3.13,1.29C805.38,180.53,809,179.43,807.78,177.17Z"/><path class="cls-5" d="M790.86,134.79c1.34-.55.53-2.52-.79-2.27C788.57,133,789.21,135.59,790.86,134.79Z"/><path class="cls-5" d="M758.4,121.38c-1,1.57,1.32,3,2.51,1.77C762.15,121.58,759.53,119.32,758.4,121.38Z"/><path class="cls-5" d="M736.06,155.89c-.66-1.34-2.64-.39-2.3,1C734.31,158.37,737,157.55,736.06,155.89Z"/></g><g class="cls-4"><path class="cls-5" d="M715.38,115.37c2.12,1.24,4-1.86,2.26-3.4C715.51,110.4,712.61,114,715.38,115.37Z"/><path class="cls-5" d="M683.14,136.11c2.63.33,3.13-3.53.8-4.33C681.16,131.12,679.79,135.88,683.14,136.11Z"/></g><g class="cls-4"><path class="cls-5" d="M639.54,80.16c-.4-1.54-2.66-1-2.59.52C637.2,82.37,640.16,82.08,639.54,80.16Z"/></g><g class="cls-4"><path class="cls-5" d="M561.67,58c1.46-.15,1.25-2.27-.1-2.42C560,55.54,559.85,58.26,561.67,58Z"/></g><g class="cls-4"><path class="cls-5" d="M552.26,59.78C551,61.8,554,63.62,555.5,62,557.05,60,553.68,57.14,552.26,59.78Z"/></g><g class="cls-4"><path class="cls-5" d="M651.37,55.78c-.9,1,.57,2.33,1.58,1.59C654,56.4,652.43,54.45,651.37,55.78Z"/><path class="cls-5" d="M634.53,71.73c-.74,1.92,2.06,3,3.1,1.42C638.65,71.19,635.34,69.26,634.53,71.73Z"/><path class="cls-5" d="M624,58.06c1.72,1.06,3.28-1.46,1.91-2.75C624.17,54,621.73,56.85,624,58.06Z"/><path class="cls-5" d="M606.25,68.65c-1.23-.47-1.93,1.33-.89,2C606.62,71.28,607.83,69.15,606.25,68.65Z"/><path class="cls-5" d="M575.81,68c.31,2.64,4.18,2.21,4.4-.26C580.2,64.86,575.24,64.66,575.81,68Z"/></g><g class="cls-4"><path class="cls-5" d="M668.71,57.5c0,2.79,4.12,2.79,4.63.24C673.65,54.74,668.49,54,668.71,57.5Z"/></g><g class="cls-4"><path class="cls-5" d="M993.53,177.6c.93,1.09,2.53-.26,1.89-1.43C994.56,174.9,992.29,176.29,993.53,177.6Z"/><path class="cls-5" d="M965.7,173.29c1.94-1.91-.86-4.77-3-3.4C960.41,171.72,963.38,175.85,965.7,173.29Z"/><path class="cls-5" d="M953.93,145c-.48-1.1-2.09-.4-1.86.69C952.46,146.91,954.62,146.34,953.93,145Z"/><path class="cls-5" d="M934.84,136.89c-2.33,1.53-.09,5,2.32,4C939.84,139.52,937.68,134.78,934.84,136.89Z"/><path class="cls-5" d="M899.68,155.27c2.75-.74,1.68-4.77-1-4.62C895.7,151.12,896.26,156.4,899.68,155.27Z"/><path class="cls-5" d="M879.31,139.66c-1.2-1.78-3.82,0-3.07,1.81C877.31,143.52,880.94,141.83,879.31,139.66Z"/></g><g class="cls-4"><path class="cls-5" d="M988.53,191.73c1.05-.83-.17-2.38-1.28-1.82C986,190.68,987.25,192.86,988.53,191.73Z"/><path class="cls-5" d="M971.44,153.89c-1.23.72-.19,2.53,1.07,2.11C973.91,155.38,973,152.9,971.44,153.89Z"/></g><g class="cls-4"><path class="cls-5" d="M24,85.68c-.46-2.29-3.82-1.63-3.83.55C20.38,88.73,24.74,88.54,24,85.68Z"/></g><g class="cls-4"><path class="cls-5" d="M4.21,84.72c1.71-.15,1.5-2.66-.08-2.85C2.28,81.84,2.06,85,4.21,84.72Z"/></g><g class="cls-4"><path class="cls-5" d="M976.27,120.82c-1,1,.45,2.52,1.57,1.79C979.06,121.66,977.5,119.47,976.27,120.82Z"/><path class="cls-5" d="M963.71,91.69c-.73-1-2.12.11-1.63,1.11C962.74,93.89,964.69,92.83,963.71,91.69Z"/><path class="cls-5" d="M942.55,87c-.54,1.36,1.45,2.18,2.21,1C945.5,86.66,943.15,85.26,942.55,87Z"/><path class="cls-5" d="M920.48,98.77c-1.82.13-1.64,2.8,0,3C922.48,101.87,922.77,98.48,920.48,98.77Z"/><path class="cls-5" d="M902.82,94.27c-1.29,1.46.83,3.35,2.28,2.28C906.65,95.14,904.34,92.34,902.82,94.27Z"/></g><g class="cls-4"><path class="cls-5" d="M805.54,45.54c1.11-1.51-1.09-3.16-2.4-2C801.77,45,804.23,47.52,805.54,45.54Z"/></g><g class="cls-4"><path class="cls-5" d="M606.84,32.89c1.58-.35,1.08-2.65-.41-2.64C604.7,30.43,604.88,33.43,606.84,32.89Z"/></g><g class="cls-4"><path class="cls-5" d="M410.23,37.36c2-.12,1.8-3,0-3.27C408.1,34,407.75,37.65,410.23,37.36Z"/></g><g class="cls-4"><path class="cls-5" d="M481.47,27.14c2.77-.34,2.3-4.41-.29-4.63C478.17,22.55,478,27.76,481.47,27.14Z"/></g><g class="cls-4"><path class="cls-5" d="M445.73,34.83c-2.35-.81-3.55,2.63-1.57,3.82C446.58,39.79,448.76,35.69,445.73,34.83Z"/><path class="cls-5" d="M427.86,32.41c-.35-1.63-2.76-1.12-2.75.44C425.3,34.64,428.43,34.46,427.86,32.41Z"/><path class="cls-5" d="M406.06,5.4c1.13-1-.35-2.67-1.57-2C403.17,4.38,404.71,6.75,406.06,5.4Z"/></g><g class="cls-4"><path class="cls-5" d="M366.92,20.55c1.25-2-1.69-3.86-3.21-2.27C362.13,20.28,365.47,23.18,366.92,20.55Z"/><path class="cls-5" d="M347.72,1.24c.45,1.85,3.15,1.21,3.1-.55C350.57-1.34,347-1.06,347.72,1.24Z"/></g><g class="cls-4"><path class="cls-5" d="M312.2,125.88c.13,1.53,2.39,1.35,2.56-.07C314.8,124.15,311.93,123.94,312.2,125.88Z"/></g><g class="cls-4"><path class="cls-5" d="M420,179.91c1.28-.72.24-2.6-1.06-2.2C417.48,178.33,418.42,180.9,420,179.91Z"/><path class="cls-5" d="M401.29,196c-.24-2.56-4-2.23-4.27.15C397,198.89,401.77,199.19,401.29,196Z"/><path class="cls-5" d="M376.67,172.78c.88-1.78-1.74-3.08-2.88-1.62C372.64,173,375.68,175.1,376.67,172.78Z"/><path class="cls-5" d="M357.93,176.82c-.94-.83-2.17.54-1.48,1.48C357.36,179.31,359.18,177.82,357.93,176.82Z"/><path class="cls-5" d="M348.26,164.16c-1.14-.87-2.42.78-1.55,1.79C347.82,167,349.75,165.17,348.26,164.16Z"/><path class="cls-5" d="M337.54,137.17c2.29.23,2.64-3.13.6-3.77C335.71,132.88,334.63,137,337.54,137.17Z"/><path class="cls-5" d="M324.31,130.15c-2.72-.45-3.4,3.53-1,4.46C326.15,135.42,327.78,130.54,324.31,130.15Z"/></g><g class="cls-4"><path class="cls-5" d="M611.91,185c-.63-1-2.07-.07-1.69.94C610.78,187.1,612.76,186.23,611.91,185Z"/><path class="cls-5" d="M579,173.55c.7,2,3.66,1,3.4-1C581.93,170.35,578,171.06,579,173.55Z"/><path class="cls-5" d="M561.73,167.84c1.57.28,2-2,.62-2.56C560.71,164.8,559.74,167.59,561.73,167.84Z"/><path class="cls-5" d="M560.71,140.36c1.44-1.53-.79-3.65-2.39-2.54C556.59,139.29,559,142.39,560.71,140.36Z"/><path class="cls-5" d="M543.48,143.87c2.09.09,2.23-3,.34-3.46C541.59,140.07,540.82,143.91,543.48,143.87Z"/><path class="cls-5" d="M511.57,170.16c1.81,1.08,3.41-1.57,2-2.9C511.73,165.89,509.21,168.92,511.57,170.16Z"/><path class="cls-5" d="M495.38,157.18c-2.63.58-1.8,4.45.71,4.42C499,161.29,498.68,156.26,495.38,157.18Z"/></g><g class="cls-4"><path class="cls-5" d="M702.48,245.38c-2.55-1.17-4.28,2.55-2.18,4.1C702.88,251,705.77,246.68,702.48,245.38Z"/><path class="cls-5" d="M677.12,243.77c.69,1.86,3.42.87,3.16-1C679.77,240.74,676.13,241.46,677.12,243.77Z"/><path class="cls-5" d="M653.58,256.86c.84.89,2.15-.35,1.55-1.32C654.33,254.49,652.44,255.8,653.58,256.86Z"/><path class="cls-5" d="M655.2,230.76c.48-2.33-2.94-3-3.82-1C650.59,232.19,654.76,233.75,655.2,230.76Z"/></g><g class="cls-4"><path class="cls-5" d="M700.83,247.09c1.16,1.92,4,.24,3.3-1.74C703.12,243.16,699.23,244.73,700.83,247.09Z"/><path class="cls-5" d="M688.82,219c-1.41-2.29-4.78-.25-3.94,2.11C686.12,223.73,690.75,221.8,688.82,219Z"/></g><g class="cls-4"><path class="cls-5" d="M700.29,216.94c.52,2.1,3.6,1.35,3.52-.66C703.5,214,699.48,214.33,700.29,216.94Z"/></g><g class="cls-4"><path class="cls-5" d="M103.83,201.38c-1.41-2.14-4.56-.09-3.68,2.13C101.41,206,105.77,204,103.83,201.38Z"/></g><g class="cls-4"><path class="cls-5" d="M12.78,130.23c-1.45-1.14-3.13,1-2,2.3C12.18,133.92,14.7,131.57,12.78,130.23Z"/></g><g class="cls-4"><path class="cls-5" d="M188.67,92.82c-3.9-.36-4.45,5.35-1,6.42C191.83,100.08,193.62,93,188.67,92.82Z"/></g><g class="cls-4"><path class="cls-5" d="M605.26,148.1c.46,2.16,3.63,1.5,3.63-.55C608.65,145.18,604.54,145.4,605.26,148.1Z"/><path class="cls-5" d="M575.16,93.83c-2.74,1.46-.61,5.48,2.16,4.67C580.42,97.26,578.52,91.79,575.16,93.83Z"/></g><g class="cls-4"><path class="cls-5" d="M848.53,202.2c1.51,1.45,3.65-.76,2.55-2.36C849.64,198.1,846.52,200.46,848.53,202.2Z"/><path class="cls-5" d="M835.6,129.09c-3.66,1.59-1.36,7,2.28,6.22C842,134.05,840.13,126.83,835.6,129.09Z"/><path class="cls-5" d="M814.86,142.79c3.19-.78,2.07-5.46-1-5.36C810.37,137.89,810.89,144,814.86,142.79Z"/><path class="cls-5" d="M764.25,154.8c1.81-2.86-2.36-5.52-4.55-3.27C757.44,154.37,762.17,158.53,764.25,154.8Z"/></g><g class="cls-4"><path class="cls-5" d="M938.46,208.09c2.22-3.4-2.75-6.67-5.42-4C930.27,207.47,935.89,212.55,938.46,208.09Z"/><path class="cls-5" d="M899.23,194.18c-3.15-.78-4.32,3.83-1.6,5.14C900.91,200.53,903.26,195,899.23,194.18Z"/><path class="cls-5" d="M875.65,127.79c2.52.92,3.9-2.77,1.78-4.1C874.83,122.4,872.39,126.79,875.65,127.79Z"/></g><g class="cls-4"><path class="cls-5" d="M980.13,168c-1.59-3.39-6.57-1.08-5.77,2.3C975.66,174.07,982.37,172.13,980.13,168Z"/><path class="cls-5" d="M907.11,192.75c2.59,1.4,4.67-2.38,2.58-4.15C907.08,186.79,903.75,191.15,907.11,192.75Z"/></g><g class="cls-4"><path class="cls-5" d="M987.6,176.11c.84,1.55,3.12.32,2.64-1.25C989.52,173.11,986.43,174.21,987.6,176.11Z"/><path class="cls-5" d="M953,172.24c-3.14-.16-3.4,4.44-.58,5.19C955.77,178,957,172.23,953,172.24Z"/></g><g class="cls-4"><path class="cls-5" d="M983.07,161.25c2,1.88,4.74-1,3.31-3.08C984.5,155.93,980.46,159,983.07,161.25Z"/></g><g class="cls-4"><path class="cls-5" d="M969.42,173.75c.55-1.63-1.84-2.46-2.66-1.07C966,174.36,968.83,175.86,969.42,173.75Z"/><path class="cls-5" d="M934.52,174.05c-1.06,1.8,1.57,3.37,2.88,1.94C938.75,174.19,935.75,171.7,934.52,174.05Z"/></g><g class="cls-4"><path class="cls-5" d="M953.6,225.5c-.12-2.11-3.22-1.95-3.51,0C950,227.77,953.89,228.17,953.6,225.5Z"/><path class="cls-5" d="M932.93,190.42c.64,2.48,4.28,1.55,4.16-.83C936.69,186.87,931.94,187.34,932.93,190.42Z"/></g><g class="cls-4"><path class="cls-5" d="M448.74,82.89c2.92,2.09,6-2.18,3.75-4.63C449.61,75.68,444.91,80.45,448.74,82.89Z"/></g><g class="cls-4"><path class="cls-5" d="M420.64,133.31c2.26,2.17,5.46-1.12,3.82-3.53C422.3,127.19,417.64,130.72,420.64,133.31Z"/><path class="cls-5" d="M405.22,121.49c2.06-2.43-1.5-5.46-3.83-3.64C398.9,120.21,402.79,124.71,405.22,121.49Z"/></g><g class="cls-4"><path class="cls-5" d="M220.51,44.36c-1.77.25-1.42,2.84.23,3C222.66,47.26,222.72,43.93,220.51,44.36Z"/></g><g class="cls-4"><path class="cls-5" d="M180.39,65.66c2.37-1.13.73-4.61-1.64-4C176.08,62.55,177.47,67.26,180.39,65.66Z"/></g><g class="cls-4"><path class="cls-5" d="M11.92,89.58c.52,1.89,3.29,1.14,3.18-.68C14.77,86.81,11.13,87.22,11.92,89.58Z"/></g><g class="cls-4"><path class="cls-5" d="M-.28,101.29c-1,2.26,2.31,3.73,3.64,1.86C4.69,100.86.82,98.37-.28,101.29Z"/></g><g class="cls-4"><path class="cls-5" d="M11.88,109.91c-1.28-2.68-5.22-.82-4.57,1.86C8.36,114.79,13.67,113.22,11.88,109.91Z"/></g><g class="cls-4"><path class="cls-5" d="M16.47,126.76c2.25,3.3,7.11,0,5.69-3.42C20.14,119.54,13.39,122.74,16.47,126.76Z"/></g><g class="cls-4"><path class="cls-5" d="M207,107.49c-.73-2.39-4.25-1.33-4,1C203.43,111.13,208.06,110.47,207,107.49Z"/><path class="cls-5" d="M169.53,75.93c-3-1.11-4.6,3.23-2.11,4.8C170.46,82.26,173.35,77.11,169.53,75.93Z"/></g><g class="cls-4"><path class="cls-5" d="M154,68.09c-2.82.54-2.05,4.68.62,4.73C157.74,72.57,157.56,67.22,154,68.09Z"/><path class="cls-5" d="M83.46,86.11c-3.17,3.32,1.67,8,5.18,5.58C92.43,88.51,87.23,81.7,83.46,86.11Z"/></g><g class="cls-4"><path class="cls-5" d="M125.63,74.4c-3.11-3.8-8.7.75-6.59,4.8C121.94,83.63,129.84,79,125.63,74.4Z"/></g><g class="cls-4"><path class="cls-5" d="M403.1,74.18c-1.51,4.11,4.51,6.34,6.66,2.89C411.86,72.85,404.72,68.88,403.1,74.18Z"/><path class="cls-5" d="M375.77,98.42c-3.49,0-3.6,5.06-.44,5.77C379.06,104.67,380.18,98.25,375.77,98.42Z"/></g><g class="cls-4"><path class="cls-5" d="M662.65,122.51c-3.61-4.38-10.06.88-7.61,5.55C658.39,133.18,667.51,127.8,662.65,122.51Z"/><path class="cls-5" d="M631.38,111.76c-1.57-3.64-6.91-1.38-6.18,2.23C626.44,118.07,633.6,116.25,631.38,111.76Z"/></g><g class="cls-4"><path class="cls-5" d="M633.07,135.6c-.57,2.65,3.31,3.51,4.34,1.2C638.34,134,633.61,132.2,633.07,135.6Z"/></g><g class="cls-4"><path class="cls-5" d="M630.73,152.87c2.18,2,5.14-1.16,3.55-3.41C632.19,147.05,627.84,150.48,630.73,152.87Z"/></g><g class="cls-4"><path class="cls-5" d="M650.16,142.24c-3.41,1.48-1.26,6.48,2.12,5.79C656.11,146.84,654.36,140.13,650.16,142.24Z"/></g><g class="cls-4"><path class="cls-5" d="M620.21,199.36c3.06-.12,2.9-4.6.09-5.08C617,194.05,616.35,199.73,620.21,199.36Z"/><path class="cls-5" d="M607.26,175.1c-3.76,1.37-1.79,6.88,1.89,6.36C613.33,180.44,611.91,173.12,607.26,175.1Z"/><path class="cls-5" d="M583.7,125c-3.7,2-.73,7.48,3,6.33C590.93,129.58,588.25,122.16,583.7,125Z"/></g><g class="cls-4"><path class="cls-5" d="M630.65,142.43c1.73,2.74,5.75.22,4.69-2.6C633.81,136.7,628.27,139.1,630.65,142.43Z"/></g><g class="cls-4"><path class="cls-5" d="M833.11,236.13c-3.89,0-4,5.64-.46,6.43C836.81,243.07,838,235.92,833.11,236.13Z"/></g><g class="cls-4"><path class="cls-5" d="M877.07,191.66c-.7-4-6.59-3-6.72.77C870.63,196.81,878.23,196.68,877.07,191.66Z"/></g><g class="cls-4"><path class="cls-5" d="M368.81,87.67c1.76,3.53,6.95,1,6-2.57C373.37,81.11,366.34,83.32,368.81,87.67Z"/><path class="cls-5" d="M327.12,95c-1.4,1.68,1.06,3.75,2.66,2.48C331.47,95.84,328.78,92.77,327.12,95Z"/></g><g class="cls-4"><path class="cls-5" d="M370.9,60.69c-1.82,2.3,1.53,5,3.62,3.24C376.75,61.69,373.05,57.67,370.9,60.69Z"/></g><g class="cls-4"><path class="cls-5" d="M422.46,73.45c-4.28.06-4.21,6.35-.3,7.1C426.76,81,427.88,73.06,422.46,73.45Z"/><path class="cls-5" d="M390,77c.56,2.58,4.35,1.79,4.34-.67C394.09,73.49,389.16,73.77,390,77Z"/></g><g class="cls-4"><path class="cls-5" d="M403.65,116.59c.88,2.88,5.11,1.6,4.85-1.19C407.9,112.22,402.33,113,403.65,116.59Z"/></g><g class="cls-4"><path class="cls-5" d="M407.73,119.35c1.55,2.77,5.61.52,4.73-2.29C411.14,113.92,405.59,116,407.73,119.35Z"/></g><g class="cls-4"><path class="cls-5" d="M421.31,141.16c-3.67-.61-4.59,4.76-1.37,6C423.8,148.27,426,141.68,421.31,141.16Z"/><path class="cls-5" d="M390.85,111.88C389,110.26,386.6,113,388,114.8,389.78,116.75,393.3,113.8,390.85,111.88Z"/></g><g class="cls-4"><path class="cls-5" d="M432.58,95.52c.38,1.94,3.23,1.4,3.26-.44C435.66,93,432,93.09,432.58,95.52Z"/><path class="cls-5" d="M412.81,90.22c2.29-2.61-1.52-6-4.11-4C405.94,88.69,410.09,93.68,412.81,90.22Z"/></g><g class="cls-4"><path class="cls-5" d="M495.34,133.11c1.6-3.28-3.19-5.64-5.27-3C488,133.47,493.55,137.36,495.34,133.11Z"/><path class="cls-5" d="M528.25,113.24c-.12,3.25,4.65,3.46,5.38.52C534.15,110.29,528.19,109.11,528.25,113.24Z"/></g><g class="cls-4"><path class="cls-5" d="M447.36,87.46c2.41-3.36-2.5-6.91-5.33-4.31C439.06,86.46,444.55,91.88,447.36,87.46Z"/><path class="cls-5" d="M481.51,116.51c-.34,3.93,5.42,4.45,6.47.94C488.81,113.29,481.66,111.52,481.51,116.51Z"/><path class="cls-5" d="M516.89,97.12c2.06-.54,1.29-3.57-.7-3.47C513.92,94,514.31,97.94,516.89,97.12Z"/></g><g class="cls-4"><path class="cls-5" d="M201.27,70.91c.84,2.7,4.8,1.48,4.54-1.13C205.23,66.8,200,67.56,201.27,70.91Z"/><path class="cls-5" d="M178.51,52.44c2,3.56,7.26.61,6.09-3C182.85,45.37,175.7,48.08,178.51,52.44Z"/></g><g class="cls-4"><path class="cls-5" d="M128.06,64.17c-2.22,3,2.11,6.24,4.69,4C135.48,65.23,130.66,60.27,128.06,64.17Z"/><path class="cls-5" d="M102.14,82.09c-.6,3.36,4.31,4.26,5.5,1.32C108.68,79.89,102.67,77.8,102.14,82.09Z"/><path class="cls-5" d="M74.78,61.15c3.39-1.86.69-6.84-2.75-5.79C68.19,57,70.63,63.73,74.78,61.15Z"/></g><g class="cls-4"><path class="cls-5" d="M101.28,72.11c-3.75-1.69-6.25,3.79-3.17,6C101.92,80.41,106.13,74,101.28,72.11Z"/><path class="cls-5" d="M89.24,92c1.61-3.73-3.85-6.12-6-3C81.05,92.77,87.46,96.82,89.24,92Z"/><path class="cls-5" d="M46.23,81.9c-2.59.3-2.16,4.1.25,4.32C49.28,86.2,49.48,81.34,46.23,81.9Z"/></g><g class="cls-4"><path class="cls-5" d="M29.76,93.25c1.89-.34,1.4-3.11-.38-3.16C27.32,90.23,27.4,93.81,29.76,93.25Z"/></g><g class="cls-4"><path class="cls-5" d="M190.72,261.52c-1.36-1.53-3.61.45-2.66,2.11C189.33,265.42,192.55,263.36,190.72,261.52Z"/><path class="cls-5" d="M158.64,259.21c.26-1.5-1.95-1.88-2.47-.56C155.73,260.24,158.43,261.14,158.64,259.21Z"/><path class="cls-5" d="M142.5,232.4c1.68,1,3.15-1.46,1.81-2.69C142.63,228.44,140.3,231.25,142.5,232.4Z"/></g><g class="cls-4"><path class="cls-5" d="M249.89,269.57c-.72-1.6-3.08-.56-2.73,1C247.74,272.41,250.91,271.56,249.89,269.57Z"/><path class="cls-5" d="M216.22,269.35c-2.08,1.92.72,5,3,3.63C221.64,271.17,218.71,266.79,216.22,269.35Z"/><path class="cls-5" d="M211.41,237.43c-1.39,1,.12,3.06,1.57,2.39C214.58,238.87,213.08,236,211.41,237.43Z"/><path class="cls-5" d="M192,246.08c-1.05-1-2.5.55-1.73,1.65C191.31,248.9,193.43,247.25,192,246.08Z"/></g><g class="cls-4"><path class="cls-5" d="M348.79,245.3c.77,2.21,4,1.1,3.74-1.06C352,241.78,347.67,242.55,348.79,245.3Z"/><path class="cls-5" d="M324.26,234.14c-.75-1-2.27.07-1.78,1.15C323.16,236.48,325.28,235.39,324.26,234.14Z"/></g><g class="cls-4"><path class="cls-5" d="M567.2,223.46c-.45-1.55-2.71-.9-2.59.59C564.91,225.75,567.88,225.37,567.2,223.46Z"/><path class="cls-5" d="M559.51,214c2.11-1,.71-4.05-1.38-3.58C555.76,211.17,556.92,215.33,559.51,214Z"/><path class="cls-5" d="M550.68,203.35c-.15-2.07-3.19-1.86-3.44.05C547.16,205.64,551,206,550.68,203.35Z"/></g><g class="cls-4"><path class="cls-5" d="M711.91,279.58c1,.61,1.9-.86,1.1-1.6C712,277.22,710.6,278.89,711.91,279.58Z"/><path class="cls-5" d="M710.58,256.05c0,1.39,2.08,1.33,2.3.06C713,254.62,710.42,254.3,710.58,256.05Z"/><path class="cls-5" d="M688.56,254.86c1.23,0,1.29-1.78.17-2.05C687.41,252.63,687,254.9,688.56,254.86Z"/></g><g class="cls-4"><path class="cls-5" d="M994.07,261.67c-2.55-1.17-4.28,2.55-2.18,4.09C994.47,267.31,997.36,263,994.07,261.67Z"/><path class="cls-5" d="M968.71,260.05c.69,1.87,3.42.88,3.16-.95C971.36,257,967.72,257.74,968.71,260.05Z"/><path class="cls-5" d="M945.17,273.14c.84.89,2.15-.34,1.55-1.31C945.92,270.78,944,272.08,945.17,273.14Z"/><path class="cls-5" d="M946.8,247.05c.47-2.34-2.95-3.05-3.83-1C942.18,248.48,946.35,250,946.8,247.05Z"/></g><g class="cls-4"><path class="cls-5" d="M992.42,263.37c1.16,1.93,4,.24,3.3-1.73C994.71,259.44,990.82,261,992.42,263.37Z"/><path class="cls-5" d="M980.41,235.29c-1.41-2.3-4.78-.25-3.94,2.1C977.71,240,982.34,238.09,980.41,235.29Z"/></g><g class="cls-4"><path class="cls-5" d="M991.88,233.23c.52,2.09,3.6,1.34,3.52-.66C995.09,230.26,991.07,230.61,991.88,233.23Z"/></g><g class="cls-4"><path class="cls-5" d="M980.15,271.14c1.23,0,1.29-1.78.17-2.05C979,268.91,978.58,271.18,980.15,271.14Z"/></g><g class="cls-4"><path class="cls-5" d="M85.88,250c-2.54-1.17-4.27,2.55-2.18,4.1C86.28,255.63,89.18,251.28,85.88,250Z"/><path class="cls-5" d="M60.53,248.36c.68,1.87,3.42.88,3.15-1C63.17,245.34,59.54,246.05,60.53,248.36Z"/><path class="cls-5" d="M37,261.46c.85.88,2.15-.35,1.55-1.32C37.73,259.09,35.85,260.39,37,261.46Z"/><path class="cls-5" d="M38.61,235.36c.48-2.34-3-3.05-3.82-1C34,236.79,38.17,238.35,38.61,235.36Z"/></g><g class="cls-4"><path class="cls-5" d="M84.23,251.68c1.16,1.93,4,.24,3.31-1.73C86.53,247.75,82.64,249.33,84.23,251.68Z"/><path class="cls-5" d="M72.22,223.6c-1.4-2.3-4.77-.25-3.93,2.1C69.52,228.32,74.16,226.4,72.22,223.6Z"/></g><g class="cls-4"><path class="cls-5" d="M83.69,221.54c.52,2.1,3.6,1.34,3.53-.66C86.9,218.57,82.89,218.92,83.69,221.54Z"/></g><g class="cls-4"><path class="cls-5" d="M95.31,284.18c1,.61,1.9-.86,1.1-1.6C95.41,281.81,94,283.48,95.31,284.18Z"/><path class="cls-5" d="M94,260.65c0,1.38,2.08,1.32,2.3.05C96.39,259.21,93.82,258.9,94,260.65Z"/><path class="cls-5" d="M72,259.45c1.24,0,1.3-1.78.18-2C70.81,257.22,70.39,259.5,72,259.45Z"/></g><g class="cls-4"><path class="cls-5" d="M966.59,214.35c-1.19,1.34.77,3.08,2.1,2.09C970.12,215.15,968,212.57,966.59,214.35Z"/><path class="cls-5" d="M962.24,179c1.89,0,1.92-2.77.2-3.14C960.41,175.6,959.85,179.09,962.24,179Z"/></g><g class="cls-4"><path class="cls-5" d="M974,186.45c1.53.43,2.16-1.8.85-2.48C973.25,183.34,972,186,974,186.45Z"/><path class="cls-5" d="M966.37,183.06c2.11-1.86-.6-5-2.87-3.68C961,181.13,963.83,185.56,966.37,183.06Z"/></g><g class="cls-4"><path class="cls-5" d="M718.53,136.15c.27,1.52,2.49,1.14,2.54-.29C721,134.2,718.09,134.25,718.53,136.15Z"/><path class="cls-5" d="M696.32,121.16c0-2.45-3.6-2.48-4.07-.25C692,123.54,696.48,124.27,696.32,121.16Z"/></g><g class="cls-4"><path class="cls-5" d="M509,43.5c-1.94,1.45.17,4.31,2.22,3.36C513.42,45.53,511.31,41.53,509,43.5Z"/></g><g class="cls-4"><path class="cls-5" d="M836.05,9.47c1.75-.1,1.61-2.67,0-2.91C834.17,6.46,833.84,9.71,836.05,9.47Z"/><path class="cls-5" d="M816.09,20.57c1-1.08-.58-2.55-1.69-1.75C813.21,19.86,814.91,22,816.09,20.57Z"/></g><g class="cls-4"><path class="cls-5" d="M764.75,7c2.56-.24,2.23-4-.14-4.25C761.85,2.68,761.55,7.46,764.75,7Z"/></g><g class="cls-4"><path class="cls-5" d="M12.47,217.64c.26-2.55-3.48-2.94-4.2-.67C7.69,219.67,12.32,220.88,12.47,217.64Z"/></g></g></g></g></g></svg>